<?xml version="1.0" encoding="UTF-8" standalone="yes"?><svg xmlns="http://www.w3.org/2000/svg" xmlns:xlink="http://www.w3.org/1999/xlink" height="1361.1845pt" style="width:3453px;height:1361px;" version="1.1" viewBox="0 0 3453 1361" width="3453.791pt"><defs><filter height="300%" id="f1" width="300%" x="-1" y="-1"><feGaussianBlur result="blurOut" stdDeviation="2.6405130139569972"/><feColorMatrix in="blurOut" result="blurOut2" type="matrix" values="0 0 0 0 0 0 0 0 0 0 0 0 0 0 0 0 0 0 .4 0"/><feOffset dx="5.2810260279139944" dy="5.2810260279139944" in="blurOut2" result="blurOut3"/><feBlend in="SourceGraphic" in2="blurOut3" mode="normal"/></filter></defs><g><text fill="#000000" font-family="Helvetica Neue" font-size="23.7646" lengthAdjust="spacingAndGlyphs" textLength="104.3003" x="1697.8499" y="22.6475">Solr stack</text><polygon fill="#FFFFFF" filter="url(#f1)" points="39.6077,766.1235,266.6918,766.1235,275.9336,797.8149,1588.2686,797.8149,1588.2686,1352.3174,39.6077,1352.3174,39.6077,766.1235" style="stroke: #000000; stroke-width: 2.6405130139569972;"/><line style="stroke: #000000; stroke-width: 2.6405130139569972;" x1="39.6077" x2="275.9336" y1="797.8149" y2="797.8149"/><text fill="#000000" font-family="Helvetica Neue" font-size="18.4836" font-weight="bold" lengthAdjust="spacingAndGlyphs" textLength="219.1626" x="43.5685" y="788.1797">zookeeper_server_stack</text><polygon fill="#FFFFFF" filter="url(#f1)" points="1666.1637,766.1235,1895.8883,766.1235,1905.1301,797.8149,3444.5492,797.8149,3444.5492,1344.3959,1666.1637,1344.3959,1666.1637,766.1235" style="stroke: #000000; stroke-width: 2.6405130139569972;"/><line style="stroke: #000000; stroke-width: 2.6405130139569972;" x1="1666.1637" x2="1905.1301" y1="797.8149" y2="797.8149"/><text fill="#000000" font-family="Helvetica Neue" font-size="18.4836" font-weight="bold" lengthAdjust="spacingAndGlyphs" textLength="221.8031" x="1670.1245" y="788.1797">solr_single_shard_stack</text><rect fill="#FEFECE" filter="url(#f1)" height="153.5354" style="stroke: #A80036; stroke-width: 1.9803847604677478;" width="318.1818" x="396.077" y="980.0051"/><text fill="#000000" font-family="Helvetica Neue" font-size="15.8431" font-style="italic" lengthAdjust="spacingAndGlyphs" textLength="235.0057" x="437.665" y="995.5156">«MachineRestrictionsResource»</text><text fill="#000000" font-family="Helvetica Neue" font-size="15.8431" lengthAdjust="spacingAndGlyphs" textLength="174.2739" x="468.0309" y="1017.7541">zk_machine_restrictions</text><line style="stroke: #A80036; stroke-width: 1.9803847604677478;" x1="397.3972" x2="712.9385" y1="1024.9099" y2="1024.9099"/><text fill="#000000" font-family="Helvetica Neue" font-size="13.2026" lengthAdjust="spacingAndGlyphs" textLength="51.49" x="403.9985" y="1042.773">CPU = 1</text><text fill="#000000" font-family="Helvetica Neue" font-size="13.2026" lengthAdjust="spacingAndGlyphs" textLength="91.0977" x="403.9985" y="1059.1178">memory = 4GB</text><text fill="#000000" font-family="Helvetica Neue" font-size="13.2026" lengthAdjust="spacingAndGlyphs" textLength="40.928" x="403.9985" y="1075.4625">NOTE:</text><text fill="#000000" font-family="Helvetica Neue" font-size="13.2026" lengthAdjust="spacingAndGlyphs" textLength="281.2146" x="403.9985" y="1091.8073">This resource is not part of the current design.</text><text fill="#000000" font-family="Helvetica Neue" font-size="13.2026" lengthAdjust="spacingAndGlyphs" textLength="302.3387" x="403.9985" y="1108.152">The machine requirements can be solved multiple</text><text fill="#000000" font-family="Helvetica Neue" font-size="13.2026" lengthAdjust="spacingAndGlyphs" textLength="34.3267" x="403.9985" y="1124.4968">ways.</text><rect fill="#FEFECE" filter="url(#f1)" height="88.1564" style="stroke: #A80036; stroke-width: 1.9803847604677478;" width="184.8359" x="336.6654" y="1223.5924"/><text fill="#000000" font-family="Helvetica Neue" font-size="15.8431" font-style="italic" lengthAdjust="spacingAndGlyphs" textLength="135.9864" x="361.0902" y="1239.1029">«ParamResource»</text><text fill="#000000" font-family="Helvetica Neue" font-size="15.8431" lengthAdjust="spacingAndGlyphs" textLength="38.2874" x="409.9396" y="1261.3414">zk_id</text><line style="stroke: #A80036; stroke-width: 1.9803847604677478;" x1="337.9857" x2="520.1811" y1="1268.4973" y2="1268.4973"/><text fill="#000000" font-family="Helvetica Neue" font-size="13.2026" lengthAdjust="spacingAndGlyphs" textLength="66.0128" x="344.5869" y="1286.3603">name = 'id'</text><text fill="#000000" font-family="Helvetica Neue" font-size="13.2026" lengthAdjust="spacingAndGlyphs" textLength="168.9928" x="344.5869" y="1302.7051">value = "&lt;%= @host.id %&gt;"</text><rect fill="#FEFECE" filter="url(#f1)" height="88.1564" style="stroke: #A80036; stroke-width: 1.9803847604677478;" width="149.189" x="1408.7137" y="1223.5924"/><text fill="#000000" font-family="Helvetica Neue" font-size="15.8431" font-style="italic" lengthAdjust="spacingAndGlyphs" textLength="135.9864" x="1415.315" y="1239.1029">«ParamResource»</text><text fill="#000000" font-family="Helvetica Neue" font-size="15.8431" lengthAdjust="spacingAndGlyphs" textLength="52.8103" x="1456.9031" y="1261.3414">zk_ring</text><line style="stroke: #A80036; stroke-width: 1.9803847604677478;" x1="1410.0339" x2="1556.5824" y1="1268.4973" y2="1268.4973"/><text fill="#000000" font-family="Helvetica Neue" font-size="13.2026" lengthAdjust="spacingAndGlyphs" textLength="99.0192" x="1416.6352" y="1286.3603">name = 'servers'</text><text fill="#000000" font-family="Helvetica Neue" font-size="13.2026" lengthAdjust="spacingAndGlyphs" textLength="56.771" x="1416.6352" y="1302.7051">value = []</text><rect fill="#FEFECE" filter="url(#f1)" height="88.1564" style="stroke: #A80036; stroke-width: 1.9803847604677478;" width="186.1562" x="567.7103" y="1223.5924"/><text fill="#000000" font-family="Helvetica Neue" font-size="15.8431" font-style="italic" lengthAdjust="spacingAndGlyphs" textLength="135.9864" x="592.7952" y="1239.1029">«ParamResource»</text><text fill="#000000" font-family="Helvetica Neue" font-size="15.8431" lengthAdjust="spacingAndGlyphs" textLength="85.8167" x="617.88" y="1261.3414">zk_client_ip</text><line style="stroke: #A80036; stroke-width: 1.9803847604677478;" x1="569.0306" x2="752.5462" y1="1268.4973" y2="1268.4973"/><text fill="#000000" font-family="Helvetica Neue" font-size="13.2026" lengthAdjust="spacingAndGlyphs" textLength="126.7446" x="575.6318" y="1286.3603">name = 'zk_client_ip'</text><text fill="#000000" font-family="Helvetica Neue" font-size="13.2026" lengthAdjust="spacingAndGlyphs" textLength="170.3131" x="575.6318" y="1302.7051">value = "$::ipaddress_eth0"</text><rect fill="#FEFECE" filter="url(#f1)" height="66.0289" style="stroke: #A80036; stroke-width: 1.9803847604677478;" width="176.9144" x="759.1475" y="1023.5736"/><text fill="#000000" font-family="Helvetica Neue" font-size="15.8431" font-style="italic" lengthAdjust="spacingAndGlyphs" textLength="163.7118" x="765.7488" y="1039.084">«HostgroupResource»</text><text fill="#000000" font-family="Helvetica Neue" font-size="15.8431" lengthAdjust="spacingAndGlyphs" textLength="69.9736" x="812.6179" y="1061.3226">zk_server</text><line style="stroke: #A80036; stroke-width: 1.9803847604677478;" x1="760.4677" x2="934.7416" y1="1068.4784" y2="1068.4784"/><rect fill="#FEFECE" filter="url(#f1)" height="71.8117" style="stroke: #A80036; stroke-width: 1.9803847604677478;" width="158.4308" x="996.7937" y="826.8553"/><text fill="#000000" font-family="Helvetica Neue" font-size="15.8431" font-style="italic" lengthAdjust="spacingAndGlyphs" textLength="121.4636" x="1015.2773" y="842.3658">«HostResource»</text><text fill="#000000" font-family="Helvetica Neue" font-size="15.8431" lengthAdjust="spacingAndGlyphs" textLength="139.9472" x="1006.0355" y="864.6044">zk_server_instance</text><line style="stroke: #A80036; stroke-width: 1.9803847604677478;" x1="998.1139" x2="1153.9042" y1="871.7602" y2="871.7602"/><text fill="#000000" font-family="Helvetica Neue" font-size="13.2026" lengthAdjust="spacingAndGlyphs" textLength="58.0913" x="1004.7152" y="889.6232">count = 4</text><rect fill="#FEFECE" filter="url(#f1)" height="71.8117" style="stroke: #A80036; stroke-width: 1.9803847604677478;" width="187.4764" x="982.2708" y="1020.933"/><text fill="#000000" font-family="Helvetica Neue" font-size="15.8431" font-style="italic" lengthAdjust="spacingAndGlyphs" textLength="174.2739" x="988.8721" y="1036.4435">«SybnetTypeResource»</text><text fill="#000000" font-family="Helvetica Neue" font-size="15.8431" lengthAdjust="spacingAndGlyphs" textLength="73.9344" x="1039.0419" y="1058.6821">zk_subnet</text><line style="stroke: #A80036; stroke-width: 1.9803847604677478;" x1="983.5911" x2="1168.427" y1="1065.8379" y2="1065.8379"/><text fill="#000000" font-family="Helvetica Neue" font-size="13.2026" lengthAdjust="spacingAndGlyphs" textLength="128.0649" x="990.1924" y="1083.7009">name = 'provisioning'</text><rect fill="#FEFECE" filter="url(#f1)" height="66.0289" style="stroke: #A80036; stroke-width: 1.9803847604677478;" width="191.4372" x="1215.9562" y="1023.5736"/><text fill="#000000" font-family="Helvetica Neue" font-size="15.8431" font-style="italic" lengthAdjust="spacingAndGlyphs" textLength="170.3131" x="1226.5183" y="1039.084">«PuppetRunResource»</text><text fill="#000000" font-family="Helvetica Neue" font-size="15.8431" lengthAdjust="spacingAndGlyphs" textLength="172.9536" x="1225.198" y="1061.3226">zk_server_instance_run</text><line style="stroke: #A80036; stroke-width: 1.9803847604677478;" x1="1217.2765" x2="1406.0732" y1="1068.4784" y2="1068.4784"/><rect fill="#FEFECE" filter="url(#f1)" height="104.5012" style="stroke: #A80036; stroke-width: 1.9803847604677478;" width="331.3844" x="798.7552" y="1215.6709"/><text fill="#000000" font-family="Helvetica Neue" font-size="15.8431" font-style="italic" lengthAdjust="spacingAndGlyphs" textLength="176.9144" x="875.9902" y="1231.1814">«PuppetclassResource»</text><text fill="#000000" font-family="Helvetica Neue" font-size="15.8431" lengthAdjust="spacingAndGlyphs" textLength="147.8687" x="890.513" y="1253.4199">zk_zookeeper_class</text><line style="stroke: #A80036; stroke-width: 1.9803847604677478;" x1="800.0754" x2="1128.8193" y1="1260.5757" y2="1260.5757"/><text fill="#000000" font-family="Helvetica Neue" font-size="13.2026" lengthAdjust="spacingAndGlyphs" textLength="120.1433" x="806.6767" y="1278.4388">name = 'zookeeper'</text><text fill="#000000" font-family="Helvetica Neue" font-size="13.2026" lengthAdjust="spacingAndGlyphs" textLength="315.5413" x="806.6767" y="1294.7835">source = https://github.com/deric/puppet-zookeeper</text><text fill="#000000" font-family="Helvetica Neue" font-size="13.2026" lengthAdjust="spacingAndGlyphs" textLength="184.8359" x="806.6767" y="1311.1283">client_ip =&gt; $::ipaddress_eth0</text><rect fill="#FEFECE" filter="url(#f1)" height="88.1564" style="stroke: #A80036; stroke-width: 1.9803847604677478;" width="188.7967" x="1175.0283" y="1223.5924"/><text fill="#000000" font-family="Helvetica Neue" font-size="15.8431" font-style="italic" lengthAdjust="spacingAndGlyphs" textLength="135.9864" x="1201.4334" y="1239.1029">«ParamResource»</text><text fill="#000000" font-family="Helvetica Neue" font-size="15.8431" lengthAdjust="spacingAndGlyphs" textLength="170.3131" x="1184.2701" y="1261.3414">zk_install_java_params</text><line style="stroke: #A80036; stroke-width: 1.9803847604677478;" x1="1176.3485" x2="1362.5047" y1="1268.4973" y2="1268.4973"/><text fill="#000000" font-family="Helvetica Neue" font-size="13.2026" lengthAdjust="spacingAndGlyphs" textLength="122.7839" x="1182.9498" y="1286.3603">name = 'install_java'</text><text fill="#000000" font-family="Helvetica Neue" font-size="13.2026" lengthAdjust="spacingAndGlyphs" textLength="77.8951" x="1182.9498" y="1302.7051">value = 'true'</text><rect fill="#FEFECE" filter="url(#f1)" height="88.1564" style="stroke: #A80036; stroke-width: 1.9803847604677478;" width="208.6005" x="81.8559" y="1223.5924"/><text fill="#000000" font-family="Helvetica Neue" font-size="15.8431" font-style="italic" lengthAdjust="spacingAndGlyphs" textLength="135.9864" x="118.163" y="1239.1029">«ParamResource»</text><text fill="#000000" font-family="Helvetica Neue" font-size="15.8431" lengthAdjust="spacingAndGlyphs" textLength="190.1169" x="91.0977" y="1261.3414">zk_java_pacakge_params</text><line style="stroke: #A80036; stroke-width: 1.9803847604677478;" x1="83.1762" x2="289.1362" y1="1268.4973" y2="1268.4973"/><text fill="#000000" font-family="Helvetica Neue" font-size="13.2026" lengthAdjust="spacingAndGlyphs" textLength="141.2674" x="89.7774" y="1286.3603">name = 'java_package'</text><text fill="#000000" font-family="Helvetica Neue" font-size="13.2026" lengthAdjust="spacingAndGlyphs" textLength="192.7575" x="89.7774" y="1302.7051">value = 'openjdk-7-jre-headless'</text><rect fill="#FEFECE" filter="url(#f1)" height="153.5354" style="stroke: #A80036; stroke-width: 1.9803847604677478;" width="318.1818" x="2000.1886" y="980.0051"/><text fill="#000000" font-family="Helvetica Neue" font-size="15.8431" font-style="italic" lengthAdjust="spacingAndGlyphs" textLength="235.0057" x="2041.7767" y="995.5156">«MachineRestrictionsResource»</text><text fill="#000000" font-family="Helvetica Neue" font-size="15.8431" lengthAdjust="spacingAndGlyphs" textLength="97.699" x="2110.43" y="1017.7541">solr_machine</text><line style="stroke: #A80036; stroke-width: 1.9803847604677478;" x1="2001.5089" x2="2317.0502" y1="1024.9099" y2="1024.9099"/><text fill="#000000" font-family="Helvetica Neue" font-size="13.2026" lengthAdjust="spacingAndGlyphs" textLength="51.49" x="2008.1101" y="1042.773">CPU = 4</text><text fill="#000000" font-family="Helvetica Neue" font-size="13.2026" lengthAdjust="spacingAndGlyphs" textLength="99.0192" x="2008.1101" y="1059.1178">memory = 16GB</text><text fill="#000000" font-family="Helvetica Neue" font-size="13.2026" lengthAdjust="spacingAndGlyphs" textLength="40.928" x="2008.1101" y="1075.4625">NOTE:</text><text fill="#000000" font-family="Helvetica Neue" font-size="13.2026" lengthAdjust="spacingAndGlyphs" textLength="281.2146" x="2008.1101" y="1091.8073">This resource is not part of the current design.</text><text fill="#000000" font-family="Helvetica Neue" font-size="13.2026" lengthAdjust="spacingAndGlyphs" textLength="302.3387" x="2008.1101" y="1108.152">The machine requirements can be solved multiple</text><text fill="#000000" font-family="Helvetica Neue" font-size="13.2026" lengthAdjust="spacingAndGlyphs" textLength="34.3267" x="2008.1101" y="1124.4968">ways.</text><rect fill="#FEFECE" filter="url(#f1)" height="88.1564" style="stroke: #A80036; stroke-width: 1.9803847604677478;" width="190.1169" x="1697.8499" y="1223.5924"/><text fill="#000000" font-family="Helvetica Neue" font-size="15.8431" font-style="italic" lengthAdjust="spacingAndGlyphs" textLength="135.9864" x="1724.9151" y="1239.1029">«ParamResource»</text><text fill="#000000" font-family="Helvetica Neue" font-size="15.8431" lengthAdjust="spacingAndGlyphs" textLength="88.4572" x="1748.6797" y="1261.3414">solr_zk_ring</text><line style="stroke: #A80036; stroke-width: 1.9803847604677478;" x1="1699.1701" x2="1886.6465" y1="1268.4973" y2="1268.4973"/><text fill="#000000" font-family="Helvetica Neue" font-size="13.2026" lengthAdjust="spacingAndGlyphs" textLength="99.0192" x="1705.7714" y="1286.3603">name = 'servers'</text><text fill="#000000" font-family="Helvetica Neue" font-size="13.2026" lengthAdjust="spacingAndGlyphs" textLength="174.2739" x="1705.7714" y="1302.7051">value =["$::ipaddress_eth0"]</text><rect fill="#FEFECE" filter="url(#f1)" height="88.1564" style="stroke: #A80036; stroke-width: 1.9803847604677478;" width="149.189" x="2996.9823" y="1223.5924"/><text fill="#000000" font-family="Helvetica Neue" font-size="15.8431" font-style="italic" lengthAdjust="spacingAndGlyphs" textLength="135.9864" x="3003.5836" y="1239.1029">«ParamResource»</text><text fill="#000000" font-family="Helvetica Neue" font-size="15.8431" lengthAdjust="spacingAndGlyphs" textLength="114.8623" x="3014.1456" y="1261.3414">solr_client_fqdn</text><line style="stroke: #A80036; stroke-width: 1.9803847604677478;" x1="2998.3025" x2="3144.851" y1="1268.4973" y2="1268.4973"/><text fill="#000000" font-family="Helvetica Neue" font-size="13.2026" lengthAdjust="spacingAndGlyphs" textLength="122.7839" x="3004.9038" y="1286.3603">name = 'client_fqdn'</text><text fill="#000000" font-family="Helvetica Neue" font-size="13.2026" lengthAdjust="spacingAndGlyphs" textLength="133.3459" x="3004.9038" y="1302.7051">value = '$::fqdn_eth0'</text><rect fill="#FEFECE" filter="url(#f1)" height="88.1564" style="stroke: #A80036; stroke-width: 1.9803847604677478;" width="211.241" x="3191.06" y="1223.5924"/><text fill="#000000" font-family="Helvetica Neue" font-size="15.8431" font-style="italic" lengthAdjust="spacingAndGlyphs" textLength="135.9864" x="3228.6873" y="1239.1029">«ParamResource»</text><text fill="#000000" font-family="Helvetica Neue" font-size="15.8431" lengthAdjust="spacingAndGlyphs" textLength="76.5749" x="3258.3931" y="1261.3414">solr_home</text><line style="stroke: #A80036; stroke-width: 1.9803847604677478;" x1="3192.3802" x2="3400.9808" y1="1268.4973" y2="1268.4973"/><text fill="#000000" font-family="Helvetica Neue" font-size="13.2026" lengthAdjust="spacingAndGlyphs" textLength="132.0257" x="3198.9815" y="1286.3603">name = 'home_folder'</text><text fill="#000000" font-family="Helvetica Neue" font-size="13.2026" lengthAdjust="spacingAndGlyphs" textLength="195.398" x="3198.9815" y="1302.7051">value = '/home/lukasz/solr-4.2.1'</text><rect fill="#FEFECE" filter="url(#f1)" height="66.0289" style="stroke: #A80036; stroke-width: 1.9803847604677478;" width="176.9144" x="2363.2591" y="1023.5736"/><text fill="#000000" font-family="Helvetica Neue" font-size="15.8431" font-style="italic" lengthAdjust="spacingAndGlyphs" textLength="163.7118" x="2369.8604" y="1039.084">«HostgroupResource»</text><text fill="#000000" font-family="Helvetica Neue" font-size="15.8431" lengthAdjust="spacingAndGlyphs" textLength="80.5356" x="2411.4485" y="1061.3226">solr_server</text><line style="stroke: #A80036; stroke-width: 1.9803847604677478;" x1="2364.5794" x2="2538.8533" y1="1068.4784" y2="1068.4784"/><rect fill="#FEFECE" filter="url(#f1)" height="71.8117" style="stroke: #A80036; stroke-width: 1.9803847604677478;" width="168.9928" x="2367.2199" y="826.8553"/><text fill="#000000" font-family="Helvetica Neue" font-size="15.8431" font-style="italic" lengthAdjust="spacingAndGlyphs" textLength="121.4636" x="2390.9845" y="842.3658">«HostResource»</text><text fill="#000000" font-family="Helvetica Neue" font-size="15.8431" lengthAdjust="spacingAndGlyphs" textLength="150.5092" x="2376.4617" y="864.6044">solr_server_instance</text><line style="stroke: #A80036; stroke-width: 1.9803847604677478;" x1="2368.5402" x2="2534.8925" y1="871.7602" y2="871.7602"/><text fill="#000000" font-family="Helvetica Neue" font-size="13.2026" lengthAdjust="spacingAndGlyphs" textLength="58.0913" x="2375.1415" y="889.6232">count = 1</text><rect fill="#FEFECE" filter="url(#f1)" height="71.8117" style="stroke: #A80036; stroke-width: 1.9803847604677478;" width="187.4764" x="2586.3825" y="1020.933"/><text fill="#000000" font-family="Helvetica Neue" font-size="15.8431" font-style="italic" lengthAdjust="spacingAndGlyphs" textLength="174.2739" x="2592.9838" y="1036.4435">«SybnetTypeResource»</text><text fill="#000000" font-family="Helvetica Neue" font-size="15.8431" lengthAdjust="spacingAndGlyphs" textLength="84.4964" x="2637.8725" y="1058.6821">solr_subnet</text><line style="stroke: #A80036; stroke-width: 1.9803847604677478;" x1="2587.7028" x2="2772.5387" y1="1065.8379" y2="1065.8379"/><text fill="#000000" font-family="Helvetica Neue" font-size="13.2026" lengthAdjust="spacingAndGlyphs" textLength="128.0649" x="2594.304" y="1083.7009">name = 'provisioning'</text><rect fill="#FEFECE" filter="url(#f1)" height="66.0289" style="stroke: #A80036; stroke-width: 1.9803847604677478;" width="201.9992" x="2820.0679" y="1023.5736"/><text fill="#000000" font-family="Helvetica Neue" font-size="15.8431" font-style="italic" lengthAdjust="spacingAndGlyphs" textLength="170.3131" x="2835.911" y="1039.084">«PuppetRunResource»</text><text fill="#000000" font-family="Helvetica Neue" font-size="15.8431" lengthAdjust="spacingAndGlyphs" textLength="183.5157" x="2829.3097" y="1061.3226">solr_server_instance_run</text><line style="stroke: #A80036; stroke-width: 1.9803847604677478;" x1="2821.3882" x2="3020.7469" y1="1068.4784" y2="1068.4784"/><rect fill="#FEFECE" filter="url(#f1)" height="88.1564" style="stroke: #A80036; stroke-width: 1.9803847604677478;" width="264.0513" x="1934.1758" y="1223.5924"/><text fill="#000000" font-family="Helvetica Neue" font-size="15.8431" font-style="italic" lengthAdjust="spacingAndGlyphs" textLength="176.9144" x="1977.7442" y="1239.1029">«PuppetclassResource»</text><text fill="#000000" font-family="Helvetica Neue" font-size="15.8431" lengthAdjust="spacingAndGlyphs" textLength="76.5749" x="2027.914" y="1261.3414">java_class</text><line style="stroke: #A80036; stroke-width: 1.9803847604677478;" x1="1935.496" x2="2196.9068" y1="1268.4973" y2="1268.4973"/><text fill="#000000" font-family="Helvetica Neue" font-size="13.2026" lengthAdjust="spacingAndGlyphs" textLength="153.1498" x="1942.0973" y="1286.3603">name = 'puppetlabs-java'</text><text fill="#000000" font-family="Helvetica Neue" font-size="13.2026" lengthAdjust="spacingAndGlyphs" textLength="248.2082" x="1942.0973" y="1302.7051">source = 'https://github.com/puppetlabs/'</text><rect fill="#FEFECE" filter="url(#f1)" height="88.1564" style="stroke: #A80036; stroke-width: 1.9803847604677478;" width="377.5934" x="2244.4361" y="1223.5924"/><text fill="#000000" font-family="Helvetica Neue" font-size="15.8431" font-style="italic" lengthAdjust="spacingAndGlyphs" textLength="176.9144" x="2344.7756" y="1239.1029">«PuppetclassResource»</text><text fill="#000000" font-family="Helvetica Neue" font-size="15.8431" lengthAdjust="spacingAndGlyphs" textLength="93.7382" x="2386.3636" y="1261.3414">tomcat_class</text><line style="stroke: #A80036; stroke-width: 1.9803847604677478;" x1="2245.7563" x2="2620.7092" y1="1268.4973" y2="1268.4973"/><text fill="#000000" font-family="Helvetica Neue" font-size="13.2026" lengthAdjust="spacingAndGlyphs" textLength="168.9928" x="2252.3576" y="1286.3603">name = 'puppetlabs-tomcat'</text><text fill="#000000" font-family="Helvetica Neue" font-size="13.2026" lengthAdjust="spacingAndGlyphs" textLength="361.7503" x="2252.3576" y="1302.7051">source = 'https://github.com/puppetlabs/puppetlabs-tomcat'</text><rect fill="#FEFECE" filter="url(#f1)" height="88.1564" style="stroke: #A80036; stroke-width: 1.9803847604677478;" width="282.5349" x="2668.2384" y="1223.5924"/><text fill="#000000" font-family="Helvetica Neue" font-size="15.8431" font-style="italic" lengthAdjust="spacingAndGlyphs" textLength="176.9144" x="2721.0487" y="1239.1029">«PuppetclassResource»</text><text fill="#000000" font-family="Helvetica Neue" font-size="15.8431" lengthAdjust="spacingAndGlyphs" textLength="124.1041" x="2747.4538" y="1261.3414">solr_install_class</text><line style="stroke: #A80036; stroke-width: 1.9803847604677478;" x1="2669.5587" x2="2949.453" y1="1268.4973" y2="1268.4973"/><text fill="#000000" font-family="Helvetica Neue" font-size="13.2026" lengthAdjust="spacingAndGlyphs" textLength="114.8623" x="2676.1599" y="1286.3603">name = 'solr-shard'</text><text fill="#000000" font-family="Helvetica Neue" font-size="13.2026" lengthAdjust="spacingAndGlyphs" textLength="266.6918" x="2676.1599" y="1302.7051">source = 'https://github.com/needs/creating'</text><rect fill="#FEFECE" filter="url(#f1)" height="66.0289" style="stroke: #A80036; stroke-width: 1.9803847604677478;" width="179.5549" x="1289.8906" y="39.9825"/><text fill="#000000" font-family="Helvetica Neue" font-size="15.8431" font-style="italic" lengthAdjust="spacingAndGlyphs" textLength="166.3523" x="1296.4919" y="55.4929">«ChildStackResource»</text><text fill="#000000" font-family="Helvetica Neue" font-size="15.8431" lengthAdjust="spacingAndGlyphs" textLength="157.1105" x="1301.1128" y="77.7315">zookeeper_childstack</text><line style="stroke: #A80036; stroke-width: 1.9803847604677478;" x1="1291.2109" x2="1468.1252" y1="84.8873" y2="84.8873"/><rect fill="#FEFECE" filter="url(#f1)" height="66.0289" style="stroke: #A80036; stroke-width: 1.9803847604677478;" width="228.4044" x="1552.6217" y="39.9825"/><text fill="#000000" font-family="Helvetica Neue" font-size="15.8431" font-style="italic" lengthAdjust="spacingAndGlyphs" textLength="166.3523" x="1583.6477" y="55.4929">«ChildStackResource»</text><text fill="#000000" font-family="Helvetica Neue" font-size="15.8431" lengthAdjust="spacingAndGlyphs" textLength="209.9208" x="1561.8634" y="77.7315">solr_single_shard_childstack</text><line style="stroke: #A80036; stroke-width: 1.9803847604677478;" x1="1553.9419" x2="1779.7058" y1="84.8873" y2="84.8873"/><rect fill="#FEFECE" filter="url(#f1)" height="88.1564" style="stroke: #A80036; stroke-width: 1.9803847604677478;" width="310.2603" x="1493.2101" y="212.2759"/><text fill="#000000" font-family="Helvetica Neue" font-size="15.8431" font-style="italic" lengthAdjust="spacingAndGlyphs" textLength="188.7967" x="1553.9419" y="227.7864">«ParamUpdateResource»</text><text fill="#000000" font-family="Helvetica Neue" font-size="15.8431" lengthAdjust="spacingAndGlyphs" textLength="167.6726" x="1564.504" y="250.025">update_zk_ring_param</text><line style="stroke: #A80036; stroke-width: 1.9803847604677478;" x1="1494.5304" x2="1802.1501" y1="257.1808" y2="257.1808"/><text fill="#000000" font-family="Helvetica Neue" font-size="13.2026" lengthAdjust="spacingAndGlyphs" textLength="99.0192" x="1501.1316" y="275.0438">name = 'servers'</text><text fill="#000000" font-family="Helvetica Neue" font-size="13.2026" lengthAdjust="spacingAndGlyphs" textLength="294.4172" x="1501.1316" y="291.3886">value = '&lt;%= hosts_in('zk_server').map(&amp;:ip) %&gt;'</text><rect fill="#FEFECE" filter="url(#f1)" height="88.1564" style="stroke: #A80036; stroke-width: 1.9803847604677478;" width="310.2603" x="1662.2029" y="407.6739"/><text fill="#000000" font-family="Helvetica Neue" font-size="15.8431" font-style="italic" lengthAdjust="spacingAndGlyphs" textLength="188.7967" x="1722.9347" y="423.1844">«ParamUpdateResource»</text><text fill="#000000" font-family="Helvetica Neue" font-size="15.8431" lengthAdjust="spacingAndGlyphs" textLength="203.3195" x="1715.6733" y="445.4229">update_solr_zk_ring_param</text><line style="stroke: #A80036; stroke-width: 1.9803847604677478;" x1="1663.5232" x2="1971.143" y1="452.5787" y2="452.5787"/><text fill="#000000" font-family="Helvetica Neue" font-size="13.2026" lengthAdjust="spacingAndGlyphs" textLength="99.0192" x="1670.1245" y="470.4418">name = 'servers'</text><text fill="#000000" font-family="Helvetica Neue" font-size="13.2026" lengthAdjust="spacingAndGlyphs" textLength="294.4172" x="1670.1245" y="486.7866">value = '&lt;%= hosts_in('zk_server').map(&amp;:ip) %&gt;'</text><rect fill="#FEFECE" filter="url(#f1)" height="88.1564" style="stroke: #A80036; stroke-width: 1.9803847604677478;" width="314.221" x="1546.0204" y="603.0719"/><text fill="#000000" font-family="Helvetica Neue" font-size="15.8431" font-style="italic" lengthAdjust="spacingAndGlyphs" textLength="170.3131" x="1617.9743" y="618.5823">«PuppetRunResource»</text><text fill="#000000" font-family="Helvetica Neue" font-size="15.8431" lengthAdjust="spacingAndGlyphs" textLength="182.1954" x="1612.0332" y="640.8209">zk_server_instance_run2</text><line style="stroke: #A80036; stroke-width: 1.9803847604677478;" x1="1547.3406" x2="1858.9212" y1="647.9767" y2="647.9767"/><text fill="#000000" font-family="Helvetica Neue" font-size="13.2026" lengthAdjust="spacingAndGlyphs" textLength="36.9672" x="1553.9419" y="665.8398">NOTE</text><text fill="#000000" font-family="Helvetica Neue" font-size="13.2026" lengthAdjust="spacingAndGlyphs" textLength="298.378" x="1553.9419" y="682.1845">Scond run to propagate the updated parameters</text><rect fill="#FEFECE" filter="url(#f1)" height="88.1564" style="stroke: #A80036; stroke-width: 1.9803847604677478;" width="314.221" x="2103.1686" y="603.0719"/><text fill="#000000" font-family="Helvetica Neue" font-size="15.8431" font-style="italic" lengthAdjust="spacingAndGlyphs" textLength="170.3131" x="2175.1226" y="618.5823">«PuppetRunResource»</text><text fill="#000000" font-family="Helvetica Neue" font-size="15.8431" lengthAdjust="spacingAndGlyphs" textLength="192.7575" x="2163.9004" y="640.8209">solr_server_instance_run2</text><line style="stroke: #A80036; stroke-width: 1.9803847604677478;" x1="2104.4889" x2="2416.0694" y1="647.9767" y2="647.9767"/><text fill="#000000" font-family="Helvetica Neue" font-size="13.2026" lengthAdjust="spacingAndGlyphs" textLength="36.9672" x="2111.0902" y="665.8398">NOTE</text><text fill="#000000" font-family="Helvetica Neue" font-size="13.2026" lengthAdjust="spacingAndGlyphs" textLength="298.378" x="2111.0902" y="682.1845">Scond run to propagate the updated parameters</text><path d="M1028.0441,903.2586 C986.0771,938.9187 925.8721,990.0747 886.7529,1023.3148 " fill="none" style="stroke: #A80036; stroke-width: 1.3202565069784986;"/><polygon fill="#A80036" points="1033.5826,898.5519,1021.108,902.221,1028.5519,902.8261,1027.9468,910.2701,1033.5826,898.5519" style="stroke: #A80036; stroke-width: 1.3202565069784986;"/><path d="M869.1156,1095.6913 C887.6388,1129.3684 914.5272,1178.2561 934.9185,1215.3329 " fill="none" style="stroke: #A80036; stroke-width: 1.3202565069784986;"/><polygon fill="#A80036" points="865.7582,1089.5864,866.8544,1102.5431,868.9383,1095.3712,876.1102,1097.455,865.7582,1089.5864" style="stroke: #A80036; stroke-width: 1.3202565069784986;"/><path d="M797.2567,1094.0132 C778.3638,1107.2277 756.3763,1121.6475 735.3829,1133.1549 C654.2386,1177.6343 628.5319,1177.4904 543.9457,1215.0108 C536.7226,1218.215 529.2605,1221.5619 521.768,1224.9483 " fill="none" style="stroke: #A80036; stroke-width: 1.3202565069784986;"/><polygon fill="#A80036" points="803.017,1089.9561,790.2619,1092.4835,797.6208,1093.7585,796.3458,1101.1173,803.017,1089.9561" style="stroke: #A80036; stroke-width: 1.3202565069784986;"/><path d="M892.166,1093.666 C911.4879,1108.0119 935.0347,1123.315 958.5062,1133.1549 C1136.4887,1207.7705 1203.1748,1150.1782 1384.9491,1215.0108 C1392.7518,1217.7965 1400.6997,1221.1354 1408.5157,1224.7648 " fill="none" style="stroke: #A80036; stroke-width: 1.3202565069784986;"/><polygon fill="#A80036" points="886.8321,1089.6498,893.1505,1101.0145,892.1066,1093.6193,899.5018,1092.5753,886.8321,1089.6498" style="stroke: #A80036; stroke-width: 1.3202565069784986;"/><path d="M813.6978,1094.7842 C781.6156,1130.9329 733.4685,1185.1835 699.6581,1223.2808 " fill="none" style="stroke: #A80036; stroke-width: 1.3202565069784986;"/><polygon fill="#A80036" points="818.3108,1089.5864,806.4733,1094.967,813.9286,1094.5233,814.3723,1101.9786,818.3108,1089.5864" style="stroke: #A80036; stroke-width: 1.3202565069784986;"/><path d="M896.7935,1093.7254 C915.5688,1107.0428 937.5128,1121.6052 958.5062,1133.1549 C1040.0558,1178.0172 1065.9764,1177.7412 1151.2637,1215.0108 C1158.8459,1218.3246 1166.6922,1221.7837 1174.5662,1225.2758 " fill="none" style="stroke: #A80036; stroke-width: 1.3202565069784986;"/><polygon fill="#A80036" points="891.0741,1089.6379,897.6718,1100.8428,896.4452,1093.4757,903.8123,1092.2491,891.0741,1089.6379" style="stroke: #A80036; stroke-width: 1.3202565069784986;"/><path d="M802.4413,1093.6317 C782.8791,1107.9723 759.0617,1123.2807 735.3829,1133.1549 C558.8553,1206.7684 496.0072,1159.7541 312.9008,1215.0108 C304.5713,1217.5245 296.0398,1220.3948 287.5347,1223.4696 " fill="none" style="stroke: #A80036; stroke-width: 1.3202565069784986;"/><polygon fill="#A80036" points="807.8425,1089.6168,795.1557,1092.467,802.5446,1093.5549,801.4567,1100.9437,807.8425,1089.6168" style="stroke: #A80036; stroke-width: 1.3202565069784986;"/><path d="M990.0524,898.6535 C878.2122,939.5802 845.3629,939.2461 735.3829,980.0051 C728.029,982.7301 720.5353,985.5845 712.9887,988.5221 " fill="none" style="stroke: #A80036; stroke-width: 1.3202565069784986;"/><polygon fill="#A80036" points="996.4808,896.2876,983.5057,895.4356,990.2857,898.5676,987.1537,905.3477,996.4808,896.2876" style="stroke: #A80036; stroke-width: 1.3202565069784986;"/><path d="M1124.8321,902.8229 C1168.0336,938.5002 1230.3206,989.94 1270.735,1023.3148 " fill="none" style="stroke: #A80036; stroke-width: 1.3202565069784986;"/><polygon fill="#A80036" points="1119.6607,898.5519,1125.4576,910.1912,1124.7498,902.7564,1132.1847,902.0486,1119.6607,898.5519" style="stroke: #A80036; stroke-width: 1.3202565069784986;"/><path d="M1076.0091,905.2865 C1076.0091,939.9063 1076.0091,988.1036 1076.0091,1020.7231 " fill="none" style="stroke: #A80036; stroke-width: 1.3202565069784986;"/><polygon fill="#A80036" points="1076.0091,898.5519,1070.728,910.4342,1076.0091,905.1532,1081.2901,910.4342,1076.0091,898.5519" style="stroke: #A80036; stroke-width: 1.3202565069784986;"/><path d="M2451.7163,905.4608 C2451.7163,940.9981 2451.7163,990.7533 2451.7163,1023.3148 " fill="none" style="stroke: #A80036; stroke-width: 1.3202565069784986;"/><polygon fill="#A80036" points="2451.7163,898.5519,2446.4353,910.4342,2451.7163,905.1532,2456.9974,910.4342,2451.7163,898.5519" style="stroke: #A80036; stroke-width: 1.3202565069784986;"/><path d="M2401.1769,1093.8191 C2382.5877,1106.8817 2361.1203,1121.2541 2340.8148,1133.1549 C2284.2418,1166.3131 2218.3346,1198.8205 2165.2735,1223.5871 " fill="none" style="stroke: #A80036; stroke-width: 1.3202565069784986;"/><polygon fill="#A80036" points="2406.854,1089.8108,2394.1026,1092.3564,2401.4633,1093.6209,2400.1988,1100.9816,2406.854,1089.8108" style="stroke: #A80036; stroke-width: 1.3202565069784986;"/><path d="M2448.2177,1096.5771 C2445.049,1132.7073 2440.4149,1185.808 2437.1275,1223.2808 " fill="none" style="stroke: #A80036; stroke-width: 1.3202565069784986;"/><polygon fill="#A80036" points="2448.825,1089.5864,2442.5263,1100.962,2448.2484,1096.1624,2453.048,1101.8846,2448.825,1089.5864" style="stroke: #A80036; stroke-width: 1.3202565069784986;"/><path d="M2503.7212,1093.6132 C2522.4425,1106.5306 2543.8966,1120.8606 2563.9381,1133.1549 C2615.9562,1165.0602 2675.9883,1198.0481 2723.676,1223.3891 " fill="none" style="stroke: #A80036; stroke-width: 1.3202565069784986;"/><polygon fill="#A80036" points="2498.0045,1089.6537,2504.7466,1100.7723,2503.4248,1093.4217,2510.7754,1092.0999,2498.0045,1089.6537" style="stroke: #A80036; stroke-width: 1.3202565069784986;"/><path d="M2407.1577,1093.6792 C2387.8423,1108.0277 2364.2889,1123.3282 2340.8148,1133.1549 C2161.722,1208.1137 2097.003,1157.0145 1911.7314,1215.0108 C1903.7571,1217.506 1895.6111,1220.3829 1887.5047,1223.4802 " fill="none" style="stroke: #A80036; stroke-width: 1.3202565069784986;"/><polygon fill="#A80036" points="2412.4915,1089.663,2399.8257,1092.6051,2407.2223,1093.6394,2406.188,1101.0359,2412.4915,1089.663" style="stroke: #A80036; stroke-width: 1.3202565069784986;"/><path d="M2497.3972,1093.93 C2516.871,1108.1558 2540.4904,1123.3005 2563.9381,1133.1549 C2735.4923,1205.2369 2799.6831,1151.3757 2974.5379,1215.0108 C2981.8917,1217.6856 2989.3512,1220.8582 2996.7182,1224.3014 " fill="none" style="stroke: #A80036; stroke-width: 1.3202565069784986;"/><polygon fill="#A80036" points="2492.0238,1089.9468,2498.4121,1101.2723,2497.3226,1093.8837,2504.7112,1092.7942,2492.0238,1089.9468" style="stroke: #A80036; stroke-width: 1.3202565069784986;"/><path d="M2496.1166,1093.9393 C2515.7356,1108.4951 2539.7906,1123.8801 2563.9381,1133.1549 C2690.5243,1181.768 3037.6726,1179.7797 3168.6156,1215.0108 C3177.6726,1217.4479 3186.9408,1220.3684 3196.1562,1223.5673 " fill="none" style="stroke: #A80036; stroke-width: 1.3202565069784986;"/><polygon fill="#A80036" points="2490.7035,1089.861,2497.005,1101.2351,2495.9721,1093.8383,2503.3688,1092.8054,2490.7035,1089.861" style="stroke: #A80036; stroke-width: 1.3202565069784986;"/><path d="M2391.8427,902.1483 C2358.0045,924.553 2314.5549,953.3293 2274.3399,979.9576 " fill="none" style="stroke: #A80036; stroke-width: 1.3202565069784986;"/><polygon fill="#A80036" points="2397.6122,898.3248,2384.7882,900.4751,2392.1063,901.9665,2390.6149,909.2845,2397.6122,898.3248" style="stroke: #A80036; stroke-width: 1.3202565069784986;"/><path d="M2542.7084,898.5453 C2655.3395,938.1147 2691.1845,930.7397 2797.6235,980.0051 C2823.8438,992.1396 2851.2788,1008.825 2873.5515,1023.5234 " fill="none" style="stroke: #A80036; stroke-width: 1.3202565069784986;"/><polygon fill="#A80036" points="2536.2392,896.2493,2545.6728,905.1983,2542.4608,898.4559,2549.2032,895.2438,2536.2392,896.2493" style="stroke: #A80036; stroke-width: 1.3202565069784986;"/><path d="M2499.536,903.1411 C2540.4376,937.8916 2598.7401,987.4249 2637.9253,1020.7231 " fill="none" style="stroke: #A80036; stroke-width: 1.3202565069784986;"/><polygon fill="#A80036" points="2494.1362,898.5519,2499.7617,910.275,2499.1631,902.8305,2506.6076,902.2319,2494.1362,898.5519" style="stroke: #A80036; stroke-width: 1.3202565069784986;"/><path d="M1574.8944,300.8295 C1528.1177,335.4281 1476.0468,388.2384 1476.0468,451.9025 C1476.0468,451.9025 1476.0468,451.9025 1476.0468,1056.58 C1476.0468,1111.261 1478.278,1173.8636 1480.1528,1216.636 " fill="none" style="stroke: #A80036; stroke-width: 1.3202565069784986;"/><polygon fill="#A80036" points="1480.4564,1223.3257,1485.2051,1211.2208,1480.1635,1216.7309,1474.6534,1211.6894,1480.4564,1223.3257" style="stroke: #A80036; stroke-width: 1.3202565069784986;"/><path d="M1860.5715,496.2618 C1892.5217,533.3782 1930.215,589.4297 1930.215,647.3005 C1930.215,647.3005 1930.215,647.3005 1930.215,1056.58 C1930.215,1119.8374 1886.3957,1179.039 1848.2667,1218.5794 " fill="none" style="stroke: #A80036; stroke-width: 1.3202565069784986;"/><polygon fill="#A80036" points="1843.6458,1223.3033,1855.7218,1218.4816,1848.2539,1218.5765,1848.159,1211.1086,1843.6458,1223.3033" style="stroke: #A80036; stroke-width: 1.3202565069784986;"/><path d="M1545.5715,691.3653 C1481.8427,707.5094 1407.2614,724.2939 1338.7401,734.4374 C1299.4902,740.2478 1195.2625,725.8636 1160.5055,744.9994 C1130.4247,761.5607 1108.3804,793.9268 1094.3646,820.5036 " fill="none" style="stroke: #A80036; stroke-width: 1.3202565069784986;"/><polygon fill="#A80036" points="1091.3214,826.4249,1101.448,818.2683,1094.3375,820.553,1092.0529,813.4425,1091.3214,826.4249" style="stroke: #A80036; stroke-width: 1.3202565069784986;"/><path d="M2309.3663,691.5819 C2326.556,707.8382 2345.6337,726.7403 2361.9389,744.9994 C2383.3799,769.0096 2405.3489,797.6843 2422.1954,820.6977 " fill="none" style="stroke: #A80036; stroke-width: 1.3202565069784986;"/><polygon fill="#A80036" points="2426.3542,826.4197,2423.6066,813.7102,2422.4591,821.09,2415.0792,819.9425,2426.3542,826.4197" style="stroke: #A80036; stroke-width: 1.3202565069784986;"/><path d="M1352.9857,112.5213 C1331.3467,148.4574 1304.4134,203.7708 1304.4134,256.5045 C1304.4134,256.5045 1304.4134,256.5045 1304.4134,647.3005 C1304.4134,785.9129 159.2955,647.5381 60.7318,744.9994 C54.4851,751.1756 50.0351,758.5822 46.9551,766.6305 " fill="none" style="stroke: #A80036; stroke-width: 1.3202565069784986;"/><polygon fill="#A80036" points="1356.6824,106.4825,1345.9695,113.8522,1353.2321,112.1103,1354.974,119.3728,1356.6824,106.4825" style="stroke: #A80036; stroke-width: 1.3202565069784986;"/><path d="M1786.4523,85.8838 C2025.8016,113.1735 2538.8533,180.5304 2538.8533,256.5045 C2538.8533,256.5045 2538.8533,256.5045 2538.8533,647.3005 C2538.8533,845.067 3285.0094,603.7412 3423.4251,744.9994 C3429.4323,751.1347 3433.7627,758.4132 3436.7861,766.2952 " fill="none" style="stroke: #A80036; stroke-width: 1.3202565069784986;"/><polygon fill="#A80036" points="1779.8114,85.1286,1791.031,91.7012,1786.3715,85.8645,1792.2083,81.205,1779.8114,85.1286" style="stroke: #A80036; stroke-width: 1.3202565069784986;"/><path d="M1433.891,110.1185 C1476.9445,139.5958 1537.2671,180.8987 1582.8555,212.1201 " fill="none" style="stroke: #808080; stroke-width: 1.3202565069784986;"/><polygon fill="#808080" points="1428.2007,106.2224,1435.0147,117.297,1433.6452,109.9551,1440.9871,108.5857,1428.2007,106.2224" style="stroke: #808080; stroke-width: 1.3202565069784986;"/><text fill="#000000" font-family="Helvetica Neue" font-size="17.1633" lengthAdjust="spacingAndGlyphs" textLength="88.4572" x="1523.576" y="163.94">depends on</text><path d="M1662.1237,113.0441 C1659.1796,142.2825 1655.1924,181.918 1652.1558,212.1201 " fill="none" style="stroke: #808080; stroke-width: 1.3202565069784986;"/><polygon fill="#808080" points="1662.8103,106.2224,1656.3635,117.5147,1662.1478,112.7903,1666.8722,118.5747,1662.8103,106.2224" style="stroke: #808080; stroke-width: 1.3202565069784986;"/><text fill="#000000" font-family="Helvetica Neue" font-size="17.1633" lengthAdjust="spacingAndGlyphs" textLength="88.4572" x="1660.8827" y="163.94">depends on</text><path d="M1690.6281,306.166 C1717.6009,337.357 1752.0992,377.2433 1778.1875,407.4019 " fill="none" style="stroke: #808080; stroke-width: 1.3202565069784986;"/><polygon fill="#808080" points="1686.0336,300.8427,1689.8043,313.287,1690.3487,305.8384,1697.7973,306.3828,1686.0336,300.8427" style="stroke: #808080; stroke-width: 1.3202565069784986;"/><text fill="#000000" font-family="Helvetica Neue" font-size="17.1633" lengthAdjust="spacingAndGlyphs" textLength="88.4572" x="1744.0588" y="359.338">depends on</text><path d="M1787.5877,501.9508 C1769.5002,533.0837 1746.4353,572.7667 1728.9947,602.7999 " fill="none" style="stroke: #808080; stroke-width: 1.3202565069784986;"/><polygon fill="#808080" points="1790.9147,496.2407,1780.3819,503.8655,1787.6005,501.9497,1789.5163,509.1683,1790.9147,496.2407" style="stroke: #808080; stroke-width: 1.3202565069784986;"/><text fill="#000000" font-family="Helvetica Neue" font-size="17.1633" lengthAdjust="spacingAndGlyphs" textLength="88.4572" x="1767.8235" y="554.736">depends on</text><path d="M1923.7722,499.0753 C1995.4885,530.6664 2089.2927,571.9838 2159.636,602.9689 " fill="none" style="stroke: #808080; stroke-width: 1.3202565069784986;"/><polygon fill="#808080" points="1917.3293,496.2407,1926.0768,505.8615,1923.3711,498.9003,1930.3322,496.1946,1917.3293,496.2407" style="stroke: #808080; stroke-width: 1.3202565069784986;"/><text fill="#000000" font-family="Helvetica Neue" font-size="17.1633" lengthAdjust="spacingAndGlyphs" textLength="88.4572" x="2066.2014" y="554.736">depends on</text></g></svg>