<?xml version="1.0" encoding="UTF-8" standalone="yes"?><svg xmlns="http://www.w3.org/2000/svg" xmlns:xlink="http://www.w3.org/1999/xlink" height="727.9186pt" style="width:829px;height:727px;" version="1.1" viewBox="0 0 829 727" width="829.1091pt"><defs><filter height="300%" id="f1" width="300%" x="-1" y="-1"><feGaussianBlur result="blurOut" stdDeviation="1.30568356374808"/><feColorMatrix in="blurOut" result="blurOut2" type="matrix" values="0 0 0 0 0 0 0 0 0 0 0 0 0 0 0 0 0 0 .4 0"/><feOffset dx="2.61136712749616" dy="2.61136712749616" in="blurOut2" result="blurOut3"/><feBlend in="SourceGraphic" in2="blurOut3" mode="normal"/></filter></defs><g><text fill="#000000" font-family="Helvetica Neue" font-size="11.7512" lengthAdjust="spacingAndGlyphs" textLength="158.6406" x="345.6797" y="11.1988">Configuration Resource Types</text><rect fill="#FEFECE" filter="url(#f1)" height="73.1767" style="stroke: #A80036; stroke-width: 0.9792626728110599;" width="103.8018" x="272.8879" y="600.7998"/><ellipse cx="287.6747" cy="611.2452" fill="#ADD1B2" rx="7.1813" ry="7.1813" style="stroke: #A80036; stroke-width: 0.65284178187404;"/><path d="M289.2048,608.4196 C288.5928,608.134 288.2052,608.0422 287.6339,608.0422 C285.9202,608.0422 284.6145,609.3989 284.6145,611.1738 L284.6145,611.9083 C284.6145,613.5914 285.9916,614.8257 287.8787,614.8257 C288.6744,614.8257 289.4292,614.6318 289.9189,614.2748 C290.2963,614.0096 290.5105,613.7138 290.5105,613.4588 C290.5105,613.1629 290.2555,612.9079 289.9495,612.9079 C289.8067,612.9079 289.6741,612.9589 289.5517,613.0813 C289.2558,613.3976 289.2558,613.3976 289.1334,613.4588 C288.858,613.6322 288.4092,613.7138 287.9093,613.7138 C286.5731,613.7138 285.7264,612.9997 285.7264,611.8879 L285.7264,611.1738 C285.7264,610.0109 286.5425,609.1541 287.6747,609.1541 C288.0522,609.1541 288.45,609.2561 288.756,609.4193 C289.0722,609.6029 289.1844,609.7457 289.2456,610.0109 C289.2864,610.2762 289.3068,610.3578 289.3986,610.4394 C289.4904,610.5312 289.6435,610.6026 289.7863,610.6026 C289.9597,610.6026 290.1331,610.5108 290.2453,610.368 C290.3167,610.266 290.3371,610.1436 290.3371,609.8681 L290.3371,608.9399 C290.3371,608.6543 290.3269,608.5727 290.2657,608.4706 C290.1637,608.2972 289.9801,608.2054 289.7863,608.2054 C289.5925,608.2054 289.4598,608.2666 289.317,608.4706 L289.2048,608.4196 Z "/><text fill="#000000" font-family="Helvetica Neue" font-size="7.8341" lengthAdjust="spacingAndGlyphs" textLength="71.8126" x="297.9243" y="613.8618">HostgroupResource</text><line style="stroke: #A80036; stroke-width: 0.9792626728110599;" x1="273.5407" x2="376.0369" y1="621.6907" y2="621.6907"/><text fill="#000000" font-family="Helvetica Neue" font-size="7.1813" lengthAdjust="spacingAndGlyphs" textLength="37.8648" x="276.8049" y="631.1457">String name</text><text fill="#000000" font-family="Helvetica Neue" font-size="7.1813" lengthAdjust="spacingAndGlyphs" textLength="94.6621" x="276.8049" y="651.5378">Parent is HostgroupResource</text><text fill="#000000" font-family="Helvetica Neue" font-size="7.1813" lengthAdjust="spacingAndGlyphs" textLength="95.9677" x="276.8049" y="660.4281">or it's provided on Deployment</text><text fill="#000000" font-family="Helvetica Neue" font-size="7.1813" lengthAdjust="spacingAndGlyphs" textLength="42.4347" x="276.8049" y="669.3185">configuration.</text><line style="stroke: #A80036; stroke-width: 0.65284178187404; stroke-dasharray: 1.0,2.0;" x1="273.5407" x2="315.9754" y1="640.2489" y2="640.2489"/><text fill="#000000" font-family="Helvetica Neue" font-size="7.1813" lengthAdjust="spacingAndGlyphs" textLength="17.6267" x="315.9754" y="642.321">notes</text><line style="stroke: #A80036; stroke-width: 0.65284178187404; stroke-dasharray: 1.0,2.0;" x1="333.6022" x2="376.0369" y1="640.2489" y2="640.2489"/><rect fill="#FEFECE" filter="url(#f1)" height="82.067" style="stroke: #A80036; stroke-width: 0.9792626728110599;" width="101.8433" x="643.0492" y="294.617"/><ellipse cx="656.9547" cy="305.0624" fill="#ADD1B2" rx="7.1813" ry="7.1813" style="stroke: #A80036; stroke-width: 0.65284178187404;"/><path d="M658.4848,302.2368 C657.8727,301.9512 657.4851,301.8594 656.9139,301.8594 C655.2002,301.8594 653.8945,303.2161 653.8945,304.991 L653.8945,305.7255 C653.8945,307.4086 655.2716,308.6429 657.1587,308.6429 C657.9543,308.6429 658.7092,308.449 659.1988,308.092 C659.5763,307.8268 659.7905,307.531 659.7905,307.276 C659.7905,306.9802 659.5355,306.7251 659.2294,306.7251 C659.0866,306.7251 658.954,306.7761 658.8316,306.8985 C658.5358,307.2148 658.5358,307.2148 658.4134,307.276 C658.138,307.4494 657.6891,307.531 657.1893,307.531 C655.853,307.531 655.0064,306.8169 655.0064,305.7051 L655.0064,304.991 C655.0064,303.8281 655.8224,302.9713 656.9547,302.9713 C657.3321,302.9713 657.7299,303.0733 658.036,303.2365 C658.3522,303.4201 658.4644,303.5629 658.5256,303.8281 C658.5664,304.0934 658.5868,304.175 658.6786,304.2566 C658.7704,304.3484 658.9234,304.4198 659.0662,304.4198 C659.2396,304.4198 659.413,304.328 659.5252,304.1852 C659.5967,304.0832 659.6171,303.9608 659.6171,303.6853 L659.6171,302.7571 C659.6171,302.4715 659.6069,302.3899 659.5457,302.2879 C659.4436,302.1144 659.26,302.0226 659.0662,302.0226 C658.8724,302.0226 658.7398,302.0838 658.597,302.2879 L658.4848,302.2368 Z "/><text fill="#000000" font-family="Helvetica Neue" font-size="7.8341" lengthAdjust="spacingAndGlyphs" textLength="71.8126" x="667.0084" y="307.679">ParameterResource</text><line style="stroke: #A80036; stroke-width: 0.9792626728110599;" x1="643.702" x2="744.2396" y1="315.5079" y2="315.5079"/><text fill="#000000" font-family="Helvetica Neue" font-size="7.1813" lengthAdjust="spacingAndGlyphs" textLength="37.8648" x="646.9662" y="324.963">String name</text><text fill="#000000" font-family="Helvetica Neue" font-size="7.1813" lengthAdjust="spacingAndGlyphs" textLength="79.6467" x="646.9662" y="333.8533">String description # intent</text><text fill="#000000" font-family="Helvetica Neue" font-size="7.1813" lengthAdjust="spacingAndGlyphs" textLength="94.0092" x="646.9662" y="342.7436">String default_value # optional</text><text fill="#000000" font-family="Helvetica Neue" font-size="7.1813" lengthAdjust="spacingAndGlyphs" textLength="92.0507" x="646.9662" y="363.1357">Validations, like list of allowed</text><text fill="#000000" font-family="Helvetica Neue" font-size="7.1813" lengthAdjust="spacingAndGlyphs" textLength="22.8495" x="646.9662" y="372.026">values.</text><line style="stroke: #A80036; stroke-width: 0.65284178187404; stroke-dasharray: 1.0,2.0;" x1="643.702" x2="685.1575" y1="351.8468" y2="351.8468"/><text fill="#000000" font-family="Helvetica Neue" font-size="7.1813" lengthAdjust="spacingAndGlyphs" textLength="17.6267" x="685.1575" y="353.9189">notes</text><line style="stroke: #A80036; stroke-width: 0.65284178187404; stroke-dasharray: 1.0,2.0;" x1="702.7842" x2="744.2396" y1="351.8468" y2="351.8468"/><rect fill="#FEFECE" filter="url(#f1)" height="46.5057" style="stroke: #A80036; stroke-width: 0.9792626728110599;" width="129.9155" x="628.6866" y="464.3558"/><ellipse cx="638.4793" cy="474.8013" fill="#ADD1B2" rx="7.1813" ry="7.1813" style="stroke: #A80036; stroke-width: 0.65284178187404;"/><path d="M640.0094,471.9757 C639.3973,471.6901 639.0097,471.5983 638.4385,471.5983 C636.7248,471.5983 635.4191,472.955 635.4191,474.7299 L635.4191,475.4643 C635.4191,477.1474 636.7962,478.3817 638.6833,478.3817 C639.4789,478.3817 640.2338,478.1879 640.7234,477.8309 C641.1008,477.5657 641.315,477.2698 641.315,477.0148 C641.315,476.719 641.06,476.464 640.754,476.464 C640.6112,476.464 640.4786,476.515 640.3562,476.6374 C640.0604,476.9536 640.0604,476.9536 639.938,477.0148 C639.6625,477.1882 639.2137,477.2698 638.7139,477.2698 C637.3776,477.2698 636.5309,476.5558 636.5309,475.4439 L636.5309,474.7299 C636.5309,473.567 637.347,472.7102 638.4793,472.7102 C638.8567,472.7102 639.2545,472.8122 639.5605,472.9754 C639.8768,473.159 639.989,473.3018 640.0502,473.567 C640.091,473.8322 640.1114,473.9138 640.2032,473.9954 C640.295,474.0872 640.448,474.1587 640.5908,474.1587 C640.7642,474.1587 640.9376,474.0668 641.0498,473.924 C641.1212,473.822 641.1416,473.6996 641.1416,473.4242 L641.1416,472.4959 C641.1416,472.2103 641.1314,472.1287 641.0702,472.0267 C640.9682,471.8533 640.7846,471.7615 640.5908,471.7615 C640.397,471.7615 640.2644,471.8227 640.1216,472.0267 L640.0094,471.9757 Z "/><text fill="#000000" font-family="Helvetica Neue" font-size="7.8341" lengthAdjust="spacingAndGlyphs" textLength="109.0246" x="647.619" y="477.4179">HostgroupParameterResource</text><line style="stroke: #A80036; stroke-width: 0.9792626728110599;" x1="629.3395" x2="757.9493" y1="485.2468" y2="485.2468"/><text fill="#000000" font-family="Helvetica Neue" font-size="7.1813" lengthAdjust="spacingAndGlyphs" textLength="89.4393" x="632.6037" y="506.2035">Turns into GroupParameter.</text><line style="stroke: #A80036; stroke-width: 0.65284178187404; stroke-dasharray: 1.0,2.0;" x1="629.3395" x2="684.831" y1="494.9147" y2="494.9147"/><text fill="#000000" font-family="Helvetica Neue" font-size="7.1813" lengthAdjust="spacingAndGlyphs" textLength="17.6267" x="684.831" y="496.9868">notes</text><line style="stroke: #A80036; stroke-width: 0.65284178187404; stroke-dasharray: 1.0,2.0;" x1="702.4578" x2="757.9493" y1="494.9147" y2="494.9147"/><rect fill="#FEFECE" filter="url(#f1)" height="46.5057" style="stroke: #A80036; stroke-width: 0.9792626728110599;" width="135.7911" x="453.725" y="464.0294"/><ellipse cx="463.5177" cy="474.4749" fill="#ADD1B2" rx="7.1813" ry="7.1813" style="stroke: #A80036; stroke-width: 0.65284178187404;"/><path d="M465.0478,471.6493 C464.4357,471.3637 464.0481,471.2719 463.4769,471.2719 C461.7632,471.2719 460.4575,472.6286 460.4575,474.4035 L460.4575,475.1379 C460.4575,476.821 461.8346,478.0553 463.7217,478.0553 C464.5173,478.0553 465.2722,477.8615 465.7618,477.5045 C466.1392,477.2392 466.3534,476.9434 466.3534,476.6884 C466.3534,476.3926 466.0984,476.1376 465.7924,476.1376 C465.6496,476.1376 465.517,476.1886 465.3946,476.311 C465.0988,476.6272 465.0988,476.6272 464.9764,476.6884 C464.7009,476.8618 464.2521,476.9434 463.7523,476.9434 C462.416,476.9434 461.5693,476.2294 461.5693,475.1175 L461.5693,474.4035 C461.5693,473.2406 462.3854,472.3837 463.5177,472.3837 C463.8951,472.3837 464.2929,472.4857 464.5989,472.649 C464.9152,472.8326 465.0274,472.9754 465.0886,473.2406 C465.1294,473.5058 465.1498,473.5874 465.2416,473.669 C465.3334,473.7608 465.4864,473.8322 465.6292,473.8322 C465.8026,473.8322 465.976,473.7404 466.0882,473.5976 C466.1596,473.4956 466.18,473.3732 466.18,473.0978 L466.18,472.1695 C466.18,471.8839 466.1698,471.8023 466.1086,471.7003 C466.0066,471.5269 465.823,471.4351 465.6292,471.4351 C465.4354,471.4351 465.3028,471.4963 465.16,471.7003 L465.0478,471.6493 Z "/><text fill="#000000" font-family="Helvetica Neue" font-size="7.8341" lengthAdjust="spacingAndGlyphs" textLength="114.9002" x="472.6575" y="477.0915">DeploymentParameterResource</text><line style="stroke: #A80036; stroke-width: 0.9792626728110599;" x1="454.3779" x2="588.8633" y1="484.9203" y2="484.9203"/><text fill="#000000" font-family="Helvetica Neue" font-size="7.1813" lengthAdjust="spacingAndGlyphs" textLength="107.0661" x="457.6421" y="505.8771">Turns into DeploymentParameter.</text><line style="stroke: #A80036; stroke-width: 0.65284178187404; stroke-dasharray: 1.0,2.0;" x1="454.3779" x2="512.8072" y1="494.5882" y2="494.5882"/><text fill="#000000" font-family="Helvetica Neue" font-size="7.1813" lengthAdjust="spacingAndGlyphs" textLength="17.6267" x="512.8072" y="496.6603">notes</text><line style="stroke: #A80036; stroke-width: 0.65284178187404; stroke-dasharray: 1.0,2.0;" x1="530.4339" x2="588.8633" y1="494.5882" y2="494.5882"/><rect fill="#FEFECE" filter="url(#f1)" height="82.067" style="stroke: #A80036; stroke-width: 0.9792626728110599;" width="123.3871" x="54.8387" y="109.8627"/><ellipse cx="64.6313" cy="120.3082" fill="#ADD1B2" rx="7.1813" ry="7.1813" style="stroke: #A80036; stroke-width: 0.65284178187404;"/><path d="M66.1614,117.4826 C65.5494,117.197 65.1618,117.1052 64.5905,117.1052 C62.8768,117.1052 61.5711,118.4619 61.5711,120.2368 L61.5711,120.9712 C61.5711,122.6544 62.9482,123.8886 64.8353,123.8886 C65.631,123.8886 66.3858,123.6948 66.8755,123.3378 C67.2529,123.0726 67.4671,122.7768 67.4671,122.5217 C67.4671,122.2259 67.2121,121.9709 66.9061,121.9709 C66.7633,121.9709 66.6307,122.0219 66.5083,122.1443 C66.2124,122.4605 66.2124,122.4605 66.09,122.5217 C65.8146,122.6952 65.3658,122.7768 64.866,122.7768 C63.5297,122.7768 62.683,122.0627 62.683,120.9508 L62.683,120.2368 C62.683,119.0739 63.4991,118.2171 64.6313,118.2171 C65.0088,118.2171 65.4066,118.3191 65.7126,118.4823 C66.0288,118.6659 66.141,118.8087 66.2022,119.0739 C66.243,119.3391 66.2634,119.4207 66.3552,119.5024 C66.4471,119.5942 66.6001,119.6656 66.7429,119.6656 C66.9163,119.6656 67.0897,119.5738 67.2019,119.4309 C67.2733,119.3289 67.2937,119.2065 67.2937,118.9311 L67.2937,118.0029 C67.2937,117.7172 67.2835,117.6356 67.2223,117.5336 C67.1203,117.3602 66.9367,117.2684 66.7429,117.2684 C66.5491,117.2684 66.4165,117.3296 66.2736,117.5336 L66.1614,117.4826 Z "/><text fill="#000000" font-family="Helvetica Neue" font-size="7.8341" lengthAdjust="spacingAndGlyphs" textLength="102.4962" x="73.7711" y="122.9248">ParameterOverrideResource</text><line style="stroke: #A80036; stroke-width: 0.9792626728110599;" x1="55.4916" x2="177.573" y1="130.7537" y2="130.7537"/><text fill="#000000" font-family="Helvetica Neue" font-size="7.1813" lengthAdjust="spacingAndGlyphs" textLength="31.9892" x="58.7558" y="140.2087">String key</text><text fill="#000000" font-family="Helvetica Neue" font-size="7.1813" lengthAdjust="spacingAndGlyphs" textLength="87.4808" x="58.7558" y="149.0991">String value # optional, ERB</text><text fill="#000000" font-family="Helvetica Neue" font-size="7.1813" lengthAdjust="spacingAndGlyphs" textLength="73.1183" x="58.7558" y="169.4911">If value is not present it</text><text fill="#000000" font-family="Helvetica Neue" font-size="7.1813" lengthAdjust="spacingAndGlyphs" textLength="75.0768" x="58.7558" y="178.3814">needs to be supplied on</text><text fill="#000000" font-family="Helvetica Neue" font-size="7.1813" lengthAdjust="spacingAndGlyphs" textLength="80.9524" x="58.7558" y="187.2718">deployment configuration.</text><line style="stroke: #A80036; stroke-width: 0.65284178187404; stroke-dasharray: 1.0,2.0;" x1="55.4916" x2="107.7189" y1="158.2022" y2="158.2022"/><text fill="#000000" font-family="Helvetica Neue" font-size="7.1813" lengthAdjust="spacingAndGlyphs" textLength="17.6267" x="107.7189" y="160.2743">notes</text><line style="stroke: #A80036; stroke-width: 0.65284178187404; stroke-dasharray: 1.0,2.0;" x1="125.3456" x2="177.573" y1="158.2022" y2="158.2022"/><rect fill="#FEFECE" filter="url(#f1)" height="99.8477" style="stroke: #A80036; stroke-width: 0.9792626728110599;" width="139.0553" x="225.2304" y="286.13"/><ellipse cx="242.3675" cy="296.5755" fill="#ADD1B2" rx="7.1813" ry="7.1813" style="stroke: #A80036; stroke-width: 0.65284178187404;"/><path d="M243.8976,293.7499 C243.2856,293.4643 242.8979,293.3725 242.3267,293.3725 C240.613,293.3725 239.3073,294.7292 239.3073,296.5041 L239.3073,297.2385 C239.3073,298.9216 240.6844,300.1559 242.5715,300.1559 C243.3672,300.1559 244.122,299.9621 244.6117,299.6051 C244.9891,299.3399 245.2033,299.044 245.2033,298.789 C245.2033,298.4932 244.9483,298.2382 244.6423,298.2382 C244.4994,298.2382 244.3668,298.2892 244.2444,298.4116 C243.9486,298.7278 243.9486,298.7278 243.8262,298.789 C243.5508,298.9624 243.102,299.044 242.6021,299.044 C241.2658,299.044 240.4192,298.33 240.4192,297.2181 L240.4192,296.5041 C240.4192,295.3412 241.2352,294.4844 242.3675,294.4844 C242.7449,294.4844 243.1428,294.5864 243.4488,294.7496 C243.765,294.9332 243.8772,295.076 243.9384,295.3412 C243.9792,295.6064 243.9996,295.688 244.0914,295.7696 C244.1832,295.8614 244.3362,295.9328 244.479,295.9328 C244.6525,295.9328 244.8259,295.841 244.9381,295.6982 C245.0095,295.5962 245.0299,295.4738 245.0299,295.1984 L245.0299,294.2701 C245.0299,293.9845 245.0197,293.9029 244.9585,293.8009 C244.8565,293.6275 244.6729,293.5357 244.479,293.5357 C244.2852,293.5357 244.1526,293.5969 244.0098,293.8009 L243.8976,293.7499 Z "/><text fill="#000000" font-family="Helvetica Neue" font-size="7.8341" lengthAdjust="spacingAndGlyphs" textLength="101.8433" x="253.1394" y="299.1921">ComputeResourceResource</text><line style="stroke: #A80036; stroke-width: 0.9792626728110599;" x1="225.8833" x2="363.6329" y1="307.021" y2="307.021"/><text fill="#000000" font-family="Helvetica Neue" font-size="7.1813" lengthAdjust="spacingAndGlyphs" textLength="33.9478" x="229.1475" y="316.476">String type</text><text fill="#000000" font-family="Helvetica Neue" font-size="7.1813" lengthAdjust="spacingAndGlyphs" textLength="69.8541" x="229.1475" y="325.3663">Boolean image_based</text><text fill="#000000" font-family="Helvetica Neue" font-size="7.1813" lengthAdjust="spacingAndGlyphs" textLength="76.3825" x="229.1475" y="334.2567">String image_url nullable</text><text fill="#000000" font-family="Helvetica Neue" font-size="7.1813" lengthAdjust="spacingAndGlyphs" textLength="131.2212" x="229.1475" y="354.6487">Each ComputeResourceResource allows</text><text fill="#000000" font-family="Helvetica Neue" font-size="7.1813" lengthAdjust="spacingAndGlyphs" textLength="117.5115" x="229.1475" y="363.539">particular ComputeResource type for</text><text fill="#000000" font-family="Helvetica Neue" font-size="7.1813" lengthAdjust="spacingAndGlyphs" textLength="100.5376" x="229.1475" y="372.4294">a given HostResource. It has to</text><text fill="#000000" font-family="Helvetica Neue" font-size="7.1813" lengthAdjust="spacingAndGlyphs" textLength="120.7757" x="229.1475" y="381.3197">contain image_url when image_based.</text><line style="stroke: #A80036; stroke-width: 0.65284178187404; stroke-dasharray: 1.0,2.0;" x1="225.8833" x2="285.9447" y1="343.3599" y2="343.3599"/><text fill="#000000" font-family="Helvetica Neue" font-size="7.1813" lengthAdjust="spacingAndGlyphs" textLength="17.6267" x="285.9447" y="345.432">notes</text><line style="stroke: #A80036; stroke-width: 0.65284178187404; stroke-dasharray: 1.0,2.0;" x1="303.5714" x2="363.6329" y1="343.3599" y2="343.3599"/><rect fill="#FEFECE" filter="url(#f1)" height="73.1767" style="stroke: #A80036; stroke-width: 0.9792626728110599;" width="101.1905" x="69.2012" y="299.1869"/><ellipse cx="78.9939" cy="309.6323" fill="#ADD1B2" rx="7.1813" ry="7.1813" style="stroke: #A80036; stroke-width: 0.65284178187404;"/><path d="M80.524,306.8067 C79.9119,306.5211 79.5243,306.4293 78.9531,306.4293 C77.2393,306.4293 75.9337,307.786 75.9337,309.5609 L75.9337,310.2954 C75.9337,311.9785 77.3107,313.2128 79.1979,313.2128 C79.9935,313.2128 80.7484,313.0189 81.238,312.6619 C81.6154,312.3967 81.8296,312.1009 81.8296,311.8459 C81.8296,311.55 81.5746,311.295 81.2686,311.295 C81.1258,311.295 80.9932,311.346 80.8708,311.4684 C80.575,311.7847 80.575,311.7847 80.4525,311.8459 C80.1771,312.0193 79.7283,312.1009 79.2285,312.1009 C77.8922,312.1009 77.0455,311.3868 77.0455,310.275 L77.0455,309.5609 C77.0455,308.398 77.8616,307.5412 78.9939,307.5412 C79.3713,307.5412 79.7691,307.6432 80.0751,307.8064 C80.3913,307.99 80.5036,308.1328 80.5648,308.398 C80.6056,308.6633 80.626,308.7449 80.7178,308.8265 C80.8096,308.9183 80.9626,308.9897 81.1054,308.9897 C81.2788,308.9897 81.4522,308.8979 81.5644,308.7551 C81.6358,308.6531 81.6562,308.5307 81.6562,308.2552 L81.6562,307.327 C81.6562,307.0414 81.646,306.9597 81.5848,306.8577 C81.4828,306.6843 81.2992,306.5925 81.1054,306.5925 C80.9116,306.5925 80.779,306.6537 80.6362,306.8577 L80.524,306.8067 Z "/><text fill="#000000" font-family="Helvetica Neue" font-size="7.8341" lengthAdjust="spacingAndGlyphs" textLength="80.2995" x="88.1336" y="312.2489">PuppetClassResource</text><line style="stroke: #A80036; stroke-width: 0.9792626728110599;" x1="69.8541" x2="169.7389" y1="320.0778" y2="320.0778"/><text fill="#000000" font-family="Helvetica Neue" font-size="7.1813" lengthAdjust="spacingAndGlyphs" textLength="37.8648" x="73.1183" y="329.5328">String name</text><text fill="#000000" font-family="Helvetica Neue" font-size="7.1813" lengthAdjust="spacingAndGlyphs" textLength="65.937" x="73.1183" y="338.4232">\# of the class to add</text><text fill="#000000" font-family="Helvetica Neue" font-size="7.1813" lengthAdjust="spacingAndGlyphs" textLength="62.02" x="73.1183" y="358.8152">possibly allot to limit</text><text fill="#000000" font-family="Helvetica Neue" font-size="7.1813" lengthAdjust="spacingAndGlyphs" textLength="69.8541" x="73.1183" y="367.7055">puppet class versions</text><line style="stroke: #A80036; stroke-width: 0.65284178187404; stroke-dasharray: 1.0,2.0;" x1="69.8541" x2="110.9831" y1="347.5264" y2="347.5264"/><text fill="#000000" font-family="Helvetica Neue" font-size="7.1813" lengthAdjust="spacingAndGlyphs" textLength="17.6267" x="110.9831" y="349.5985">notes</text><line style="stroke: #A80036; stroke-width: 0.65284178187404; stroke-dasharray: 1.0,2.0;" x1="128.6098" x2="169.7389" y1="347.5264" y2="347.5264"/><rect fill="#FEFECE" filter="url(#f1)" height="64.2864" style="stroke: #A80036; stroke-width: 0.9792626728110599;" width="98.5791" x="468.0876" y="303.7567"/><ellipse cx="477.8802" cy="314.2022" fill="#ADD1B2" rx="7.1813" ry="7.1813" style="stroke: #A80036; stroke-width: 0.65284178187404;"/><path d="M479.4103,311.3766 C478.7982,311.091 478.4106,310.9992 477.8394,310.9992 C476.1257,310.9992 474.82,312.3559 474.82,314.1308 L474.82,314.8653 C474.82,316.5484 476.1971,317.7826 478.0842,317.7826 C478.8798,317.7826 479.6347,317.5888 480.1243,317.2318 C480.5018,316.9666 480.716,316.6708 480.716,316.4158 C480.716,316.1199 480.4609,315.8649 480.1549,315.8649 C480.0121,315.8649 479.8795,315.9159 479.7571,316.0383 C479.4613,316.3546 479.4613,316.3546 479.3389,316.4158 C479.0635,316.5892 478.6146,316.6708 478.1148,316.6708 C476.7785,316.6708 475.9319,315.9567 475.9319,314.8449 L475.9319,314.1308 C475.9319,312.9679 476.7479,312.1111 477.8802,312.1111 C478.2576,312.1111 478.6554,312.2131 478.9615,312.3763 C479.2777,312.5599 479.3899,312.7027 479.4511,312.9679 C479.4919,313.2332 479.5123,313.3148 479.6041,313.3964 C479.6959,313.4882 479.8489,313.5596 479.9917,313.5596 C480.1651,313.5596 480.3385,313.4678 480.4507,313.325 C480.5222,313.223 480.5426,313.1005 480.5426,312.8251 L480.5426,311.8969 C480.5426,311.6112 480.5324,311.5296 480.4712,311.4276 C480.3691,311.2542 480.1855,311.1624 479.9917,311.1624 C479.7979,311.1624 479.6653,311.2236 479.5225,311.4276 L479.4103,311.3766 Z "/><text fill="#000000" font-family="Helvetica Neue" font-size="7.8341" lengthAdjust="spacingAndGlyphs" textLength="77.6882" x="487.02" y="316.8188">SubnetTypeResource</text><line style="stroke: #A80036; stroke-width: 0.9792626728110599;" x1="468.7404" x2="566.0138" y1="324.6477" y2="324.6477"/><text fill="#000000" font-family="Helvetica Neue" font-size="7.1813" lengthAdjust="spacingAndGlyphs" textLength="37.8648" x="472.0046" y="334.1027">String name</text><text fill="#000000" font-family="Helvetica Neue" font-size="7.1813" lengthAdjust="spacingAndGlyphs" textLength="38.5177" x="472.0046" y="354.4948">like Staypuft</text><text fill="#000000" font-family="Helvetica Neue" font-size="7.1813" lengthAdjust="spacingAndGlyphs" textLength="45.0461" x="472.0046" y="363.3851">network types</text><line style="stroke: #A80036; stroke-width: 0.65284178187404; stroke-dasharray: 1.0,2.0;" x1="468.7404" x2="508.5637" y1="343.2059" y2="343.2059"/><text fill="#000000" font-family="Helvetica Neue" font-size="7.1813" lengthAdjust="spacingAndGlyphs" textLength="17.6267" x="508.5637" y="345.278">notes</text><line style="stroke: #A80036; stroke-width: 0.65284178187404; stroke-dasharray: 1.0,2.0;" x1="526.1905" x2="566.0138" y1="343.2059" y2="343.2059"/><rect fill="#FEFECE" filter="url(#f1)" height="64.2864" style="stroke: #A80036; stroke-width: 0.9792626728110599;" width="86.1751" x="513.7865" y="119.0025"/><ellipse cx="523.5791" cy="129.448" fill="#ADD1B2" rx="7.1813" ry="7.1813" style="stroke: #A80036; stroke-width: 0.65284178187404;"/><path d="M525.1092,126.6224 C524.4972,126.3368 524.1095,126.245 523.5383,126.245 C521.8246,126.245 520.5189,127.6017 520.5189,129.3766 L520.5189,130.111 C520.5189,131.7941 521.896,133.0284 523.7831,133.0284 C524.5788,133.0284 525.3336,132.8346 525.8233,132.4776 C526.2007,132.2124 526.4149,131.9165 526.4149,131.6615 C526.4149,131.3657 526.1599,131.1107 525.8539,131.1107 C525.711,131.1107 525.5784,131.1617 525.456,131.2841 C525.1602,131.6003 525.1602,131.6003 525.0378,131.6615 C524.7624,131.8349 524.3136,131.9165 523.8137,131.9165 C522.4774,131.9165 521.6308,131.2025 521.6308,130.0906 L521.6308,129.3766 C521.6308,128.2137 522.4468,127.3569 523.5791,127.3569 C523.9565,127.3569 524.3544,127.4589 524.6604,127.6221 C524.9766,127.8057 525.0888,127.9485 525.15,128.2137 C525.1908,128.4789 525.2112,128.5605 525.303,128.6421 C525.3948,128.7339 525.5478,128.8053 525.6906,128.8053 C525.8641,128.8053 526.0375,128.7135 526.1497,128.5707 C526.2211,128.4687 526.2415,128.3463 526.2415,128.0709 L526.2415,127.1426 C526.2415,126.857 526.2313,126.7754 526.1701,126.6734 C526.0681,126.5 525.8845,126.4082 525.6906,126.4082 C525.4968,126.4082 525.3642,126.4694 525.2214,126.6734 L525.1092,126.6224 Z "/><text fill="#000000" font-family="Helvetica Neue" font-size="7.8341" lengthAdjust="spacingAndGlyphs" textLength="65.2842" x="532.7189" y="132.0646">InterfaceResource</text><line style="stroke: #A80036; stroke-width: 0.9792626728110599;" x1="514.4393" x2="599.3088" y1="139.8935" y2="139.8935"/><text fill="#000000" font-family="Helvetica Neue" font-size="7.1813" lengthAdjust="spacingAndGlyphs" textLength="25.4608" x="517.7035" y="149.3485">String ip</text><text fill="#000000" font-family="Helvetica Neue" font-size="7.1813" lengthAdjust="spacingAndGlyphs" textLength="77.6882" x="517.7035" y="169.7405">creates interface without</text><text fill="#000000" font-family="Helvetica Neue" font-size="7.1813" lengthAdjust="spacingAndGlyphs" textLength="58.1029" x="517.7035" y="178.6309">Host to reserve IP</text><line style="stroke: #A80036; stroke-width: 0.65284178187404; stroke-dasharray: 1.0,2.0;" x1="514.4393" x2="548.0607" y1="158.4517" y2="158.4517"/><text fill="#000000" font-family="Helvetica Neue" font-size="7.1813" lengthAdjust="spacingAndGlyphs" textLength="17.6267" x="548.0607" y="160.5238">notes</text><line style="stroke: #A80036; stroke-width: 0.65284178187404; stroke-dasharray: 1.0,2.0;" x1="565.6874" x2="599.3088" y1="158.4517" y2="158.4517"/><rect fill="#FEFECE" filter="url(#f1)" height="58.0074" style="stroke: #A80036; stroke-width: 0.9792626728110599;" width="87.4808" x="325.768" y="122.2667"/><ellipse cx="342.6114" cy="132.7122" fill="#ADD1B2" rx="7.1813" ry="7.1813" style="stroke: #A80036; stroke-width: 0.65284178187404;"/><path d="M344.1415,129.8866 C343.5294,129.601 343.1418,129.5092 342.5706,129.5092 C340.8569,129.5092 339.5512,130.8659 339.5512,132.6408 L339.5512,133.3752 C339.5512,135.0583 340.9283,136.2926 342.8154,136.2926 C343.611,136.2926 344.3659,136.0988 344.8555,135.7418 C345.2329,135.4766 345.4471,135.1808 345.4471,134.9257 C345.4471,134.6299 345.1921,134.3749 344.8861,134.3749 C344.7433,134.3749 344.6107,134.4259 344.4883,134.5483 C344.1925,134.8645 344.1925,134.8645 344.0701,134.9257 C343.7946,135.0992 343.3458,135.1808 342.846,135.1808 C341.5097,135.1808 340.663,134.4667 340.663,133.3548 L340.663,132.6408 C340.663,131.4779 341.4791,130.6211 342.6114,130.6211 C342.9888,130.6211 343.3866,130.7231 343.6926,130.8863 C344.0089,131.0699 344.1211,131.2127 344.1823,131.4779 C344.2231,131.7431 344.2435,131.8247 344.3353,131.9063 C344.4271,131.9982 344.5801,132.0696 344.7229,132.0696 C344.8963,132.0696 345.0697,131.9778 345.1819,131.8349 C345.2533,131.7329 345.2737,131.6105 345.2737,131.3351 L345.2737,130.4069 C345.2737,130.1212 345.2635,130.0396 345.2023,129.9376 C345.1003,129.7642 344.9167,129.6724 344.7229,129.6724 C344.5291,129.6724 344.3965,129.7336 344.2537,129.9376 L344.1415,129.8866 Z "/><text fill="#000000" font-family="Helvetica Neue" font-size="7.8341" lengthAdjust="spacingAndGlyphs" textLength="50.9217" x="353.318" y="135.3288">HostResource</text><line style="stroke: #A80036; stroke-width: 0.9792626728110599;" x1="326.4209" x2="412.596" y1="143.1577" y2="143.1577"/><text fill="#000000" font-family="Helvetica Neue" font-size="7.1813" lengthAdjust="spacingAndGlyphs" textLength="79.6467" x="329.6851" y="152.6127">String name # "db-%02d"</text><text fill="#000000" font-family="Helvetica Neue" font-size="7.1813" lengthAdjust="spacingAndGlyphs" textLength="39.1705" x="329.6851" y="161.5031">Integere min</text><text fill="#000000" font-family="Helvetica Neue" font-size="7.1813" lengthAdjust="spacingAndGlyphs" textLength="41.7819" x="329.6851" y="170.3934">Integere max</text><line style="stroke: #A80036; stroke-width: 0.9792626728110599;" x1="326.4209" x2="412.596" y1="175.0514" y2="175.0514"/><rect fill="#FEFECE" filter="url(#f1)" height="90.9574" style="stroke: #A80036; stroke-width: 0.9792626728110599;" width="122.7343" x="700.4992" y="105.2928"/><ellipse cx="710.2919" cy="115.7383" fill="#ADD1B2" rx="7.1813" ry="7.1813" style="stroke: #A80036; stroke-width: 0.65284178187404;"/><path d="M711.822,112.9127 C711.2099,112.6271 710.8223,112.5353 710.2511,112.5353 C708.5373,112.5353 707.2317,113.892 707.2317,115.6669 L707.2317,116.4014 C707.2317,118.0845 708.6088,119.3187 710.4959,119.3187 C711.2915,119.3187 712.0464,119.1249 712.536,118.7679 C712.9134,118.5027 713.1276,118.2069 713.1276,117.9519 C713.1276,117.656 712.8726,117.401 712.5666,117.401 C712.4238,117.401 712.2912,117.452 712.1688,117.5744 C711.873,117.8906 711.873,117.8906 711.7506,117.9519 C711.4751,118.1253 711.0263,118.2069 710.5265,118.2069 C709.1902,118.2069 708.3435,117.4928 708.3435,116.381 L708.3435,115.6669 C708.3435,114.504 709.1596,113.6472 710.2919,113.6472 C710.6693,113.6472 711.0671,113.7492 711.3731,113.9124 C711.6893,114.096 711.8016,114.2388 711.8628,114.504 C711.9036,114.7692 711.924,114.8509 712.0158,114.9325 C712.1076,115.0243 712.2606,115.0957 712.4034,115.0957 C712.5768,115.0957 712.7502,115.0039 712.8624,114.8611 C712.9338,114.759 712.9542,114.6366 712.9542,114.3612 L712.9542,113.433 C712.9542,113.1473 712.944,113.0657 712.8828,112.9637 C712.7808,112.7903 712.5972,112.6985 712.4034,112.6985 C712.2096,112.6985 712.077,112.7597 711.9342,112.9637 L711.822,112.9127 Z "/><text fill="#000000" font-family="Helvetica Neue" font-size="7.8341" lengthAdjust="spacingAndGlyphs" textLength="101.8433" x="719.4316" y="118.3549">ConnectParameterResource</text><line style="stroke: #A80036; stroke-width: 0.9792626728110599;" x1="701.1521" x2="822.5806" y1="126.1838" y2="126.1838"/><text fill="#000000" font-family="Helvetica Neue" font-size="7.1813" lengthAdjust="spacingAndGlyphs" textLength="73.1183" x="704.4163" y="147.1405">Possibly allow to define</text><text fill="#000000" font-family="Helvetica Neue" font-size="7.1813" lengthAdjust="spacingAndGlyphs" textLength="80.2995" x="704.4163" y="156.0309">a transformation function.</text><text fill="#000000" font-family="Helvetica Neue" font-size="7.1813" lengthAdjust="spacingAndGlyphs" textLength="107.7189" x="704.4163" y="164.9212">Only resource allowing to connect</text><text fill="#000000" font-family="Helvetica Neue" font-size="7.1813" lengthAdjust="spacingAndGlyphs" textLength="90.745" x="704.4163" y="173.8115">resources form child stacks.</text><text fill="#000000" font-family="Helvetica Neue" font-size="7.1813" lengthAdjust="spacingAndGlyphs" textLength="92.7035" x="704.4163" y="182.7019">ERB is inserted to destination</text><text fill="#000000" font-family="Helvetica Neue" font-size="7.1813" lengthAdjust="spacingAndGlyphs" textLength="101.1905" x="704.4163" y="191.5922">to propagate value from source.</text><line style="stroke: #A80036; stroke-width: 0.65284178187404; stroke-dasharray: 1.0,2.0;" x1="701.1521" x2="753.053" y1="135.8517" y2="135.8517"/><text fill="#000000" font-family="Helvetica Neue" font-size="7.1813" lengthAdjust="spacingAndGlyphs" textLength="17.6267" x="753.053" y="137.9238">notes</text><line style="stroke: #A80036; stroke-width: 0.65284178187404; stroke-dasharray: 1.0,2.0;" x1="770.6797" x2="822.5806" y1="135.8517" y2="135.8517"/><rect fill="#FEFECE" filter="url(#f1)" height="31.3364" style="stroke: #A80036; stroke-width: 0.9792626728110599;" width="55.4916" x="342.0891" y="19.7706"/><ellipse cx="351.8817" cy="30.216" fill="#ADD1B2" rx="7.1813" ry="7.1813" style="stroke: #A80036; stroke-width: 0.65284178187404;"/><path d="M353.4118,27.3905 C352.7998,27.1048 352.4122,27.013 351.8409,27.013 C350.1272,27.013 348.8215,28.3697 348.8215,30.1446 L348.8215,30.8791 C348.8215,32.5622 350.1986,33.7965 352.0857,33.7965 C352.8814,33.7965 353.6362,33.6027 354.1259,33.2456 C354.5033,32.9804 354.7175,32.6846 354.7175,32.4296 C354.7175,32.1338 354.4625,31.8787 354.1565,31.8787 C354.0137,31.8787 353.881,31.9297 353.7586,32.0522 C353.4628,32.3684 353.4628,32.3684 353.3404,32.4296 C353.065,32.603 352.6162,32.6846 352.1163,32.6846 C350.78,32.6846 349.9334,31.9706 349.9334,30.8587 L349.9334,30.1446 C349.9334,28.9818 350.7494,28.1249 351.8817,28.1249 C352.2591,28.1249 352.657,28.2269 352.963,28.3901 C353.2792,28.5737 353.3914,28.7165 353.4526,28.9818 C353.4934,29.247 353.5138,29.3286 353.6056,29.4102 C353.6974,29.502 353.8504,29.5734 353.9933,29.5734 C354.1667,29.5734 354.3401,29.4816 354.4523,29.3388 C354.5237,29.2368 354.5441,29.1144 354.5441,28.839 L354.5441,27.9107 C354.5441,27.6251 354.5339,27.5435 354.4727,27.4415 C354.3707,27.268 354.1871,27.1762 353.9933,27.1762 C353.7994,27.1762 353.6668,27.2374 353.524,27.4415 L353.4118,27.3905 Z "/><text fill="#000000" font-family="Helvetica Neue" font-size="7.8341" lengthAdjust="spacingAndGlyphs" textLength="34.6006" x="361.0215" y="32.8326">Resource</text><line style="stroke: #A80036; stroke-width: 0.9792626728110599;" x1="342.7419" x2="396.9278" y1="40.6615" y2="40.6615"/><line style="stroke: #A80036; stroke-width: 0.9792626728110599;" x1="342.7419" x2="396.9278" y1="45.8842" y2="45.8842"/><path d="M550.0512,183.1736 C543.1076,215.9241 532.3735,266.5539 525.1969,300.4018 " fill="none" style="stroke: #A80036; stroke-width: 0.65284178187404;"/><polygon fill="#A80036" points="524.514,303.6236,528.2873,298.4174,525.191,300.4303,523.1781,297.3341,524.514,303.6236" style="stroke: #A80036; stroke-width: 0.65284178187404;"/><text fill="#000000" font-family="Helvetica Neue" font-size="8.4869" lengthAdjust="spacingAndGlyphs" textLength="22.1966" x="539.9002" y="242.97">where</text><text fill="#000000" font-family="Helvetica Neue" font-size="8.4869" lengthAdjust="spacingAndGlyphs" textLength="13.0568" x="537.5742" y="196.5857">0..*</text><text fill="#000000" font-family="Helvetica Neue" font-size="8.4869" lengthAdjust="spacingAndGlyphs" textLength="4.5699" x="527.2044" y="296.1054">1</text><path d="M637.5483,510.7265 C567.5513,539.0971 449.0115,587.1423 379.8201,615.1864 " fill="none" style="stroke: #A80036; stroke-width: 0.65284178187404;"/><polygon fill="#A80036" points="376.7674,616.4236,383.1936,616.6364,379.7925,615.1973,381.2316,611.7962,376.7674,616.4236" style="stroke: #A80036; stroke-width: 0.65284178187404;"/><text fill="#000000" font-family="Helvetica Neue" font-size="8.4869" lengthAdjust="spacingAndGlyphs" textLength="23.5023" x="558.1797" y="552.417">will be</text><text fill="#000000" font-family="Helvetica Neue" font-size="8.4869" lengthAdjust="spacingAndGlyphs" textLength="32.6421" x="553.6098" y="562.9238">added to</text><text fill="#000000" font-family="Helvetica Neue" font-size="8.4869" lengthAdjust="spacingAndGlyphs" textLength="13.0568" x="610.4049" y="517.8504">0..*</text><text fill="#000000" font-family="Helvetica Neue" font-size="8.4869" lengthAdjust="spacingAndGlyphs" textLength="14.3625" x="381.7779" y="617.1395">0..1</text><path d="M117.5748,191.5372 C118.1219,222.4877 118.8714,264.9172 119.4159,295.7353 " fill="none" style="stroke: #A80036; stroke-width: 0.65284178187404;"/><polygon fill="#A80036" points="119.4746,299.0563,121.9815,293.1354,119.4168,295.7926,116.7596,293.2279,119.4746,299.0563" style="stroke: #A80036; stroke-width: 0.65284178187404;"/><text fill="#000000" font-family="Helvetica Neue" font-size="8.4869" lengthAdjust="spacingAndGlyphs" textLength="34.6006" x="119.47" y="237.7473">overrides</text><text fill="#000000" font-family="Helvetica Neue" font-size="8.4869" lengthAdjust="spacingAndGlyphs" textLength="6.5284" x="133.5061" y="248.2541">in</text><text fill="#000000" font-family="Helvetica Neue" font-size="8.4869" lengthAdjust="spacingAndGlyphs" textLength="13.0568" x="107.8543" y="205.1055">0..*</text><text fill="#000000" font-family="Helvetica Neue" font-size="8.4869" lengthAdjust="spacingAndGlyphs" textLength="4.5699" x="119.7082" y="291.5344">1</text><path d="M145.0543,372.4279 C183.8637,429.5306 258.4046,539.2048 298.3232,597.9384 " fill="none" style="stroke: #A80036; stroke-width: 0.65284178187404;"/><polygon fill="#A80036" points="300.1975,600.6966,299.0554,594.3691,298.3631,597.9967,294.7355,597.3043,300.1975,600.6966" style="stroke: #A80036; stroke-width: 0.65284178187404;"/><text fill="#000000" font-family="Helvetica Neue" font-size="8.4869" lengthAdjust="spacingAndGlyphs" textLength="23.5023" x="251.9969" y="484.5215">will be</text><text fill="#000000" font-family="Helvetica Neue" font-size="8.4869" lengthAdjust="spacingAndGlyphs" textLength="32.6421" x="247.427" y="495.0283">added to</text><text fill="#000000" font-family="Helvetica Neue" font-size="8.4869" lengthAdjust="spacingAndGlyphs" textLength="13.0568" x="141.8003" y="385.6249">0..*</text><text fill="#000000" font-family="Helvetica Neue" font-size="8.4869" lengthAdjust="spacingAndGlyphs" textLength="4.5699" x="294.3923" y="593.1939">1</text><path d="M392.6641,179.8598 C418.9253,212.5991 461.7328,265.9677 489.8109,300.9717 " fill="none" style="stroke: #A80036; stroke-width: 0.65284178187404;"/><polygon fill="#A80036" points="491.9744,303.6699,490.3348,297.4527,489.9318,301.1237,486.2609,300.7208,491.9744,303.6699" style="stroke: #A80036; stroke-width: 0.65284178187404;"/><text fill="#000000" font-family="Helvetica Neue" font-size="8.4869" lengthAdjust="spacingAndGlyphs" textLength="44.3932" x="448.5023" y="242.97">connects to</text><text fill="#000000" font-family="Helvetica Neue" font-size="8.4869" lengthAdjust="spacingAndGlyphs" textLength="13.0568" x="390.7874" y="193.611">0..*</text><text fill="#000000" font-family="Helvetica Neue" font-size="8.4869" lengthAdjust="spacingAndGlyphs" textLength="13.0568" x="480.9697" y="296.1626">0..*</text><path d="M330.3987,179.7279 C315.8037,192.8383 300.8993,209.6868 293.126,228.6799 C286.2652,245.4443 284.9106,264.9577 285.8644,282.698 " fill="none" style="stroke: #A80036; stroke-width: 0.65284178187404;"/><polygon fill="#A80036" points="286.0687,285.989,288.3108,279.9628,285.8663,282.7311,283.0981,280.2866,286.0687,285.989" style="stroke: #A80036; stroke-width: 0.65284178187404;"/><text fill="#000000" font-family="Helvetica Neue" font-size="8.4869" lengthAdjust="spacingAndGlyphs" textLength="105.1075" x="293.7788" y="242.97">allowed ComputeResources</text><text fill="#000000" font-family="Helvetica Neue" font-size="8.4869" lengthAdjust="spacingAndGlyphs" textLength="13.0568" x="307.3378" y="190.8476">1..*</text><text fill="#000000" font-family="Helvetica Neue" font-size="8.4869" lengthAdjust="spacingAndGlyphs" textLength="13.0568" x="281.1353" y="278.4837">1..*</text><path d="M721.7035,196.1567 C714.6071,206.2614 708.1114,217.3597 703.7634,228.6799 C696.2362,248.2815 693.4355,271.3294 692.6586,291.0107 " fill="none" style="stroke: #A80036; stroke-width: 0.65284178187404;"/><polygon fill="#A80036" points="692.5411,294.3917,695.3506,288.6083,692.652,291.1294,690.1309,288.4308,692.5411,294.3917" style="stroke: #A80036; stroke-width: 0.65284178187404;"/><text fill="#000000" font-family="Helvetica Neue" font-size="8.4869" lengthAdjust="spacingAndGlyphs" textLength="25.4608" x="704.4163" y="242.97">source</text><text fill="#000000" font-family="Helvetica Neue" font-size="8.4869" lengthAdjust="spacingAndGlyphs" textLength="13.0568" x="702.1596" y="209.4121">0..*</text><text fill="#000000" font-family="Helvetica Neue" font-size="8.4869" lengthAdjust="spacingAndGlyphs" textLength="4.5699" x="692.9903" y="287.0393">1</text><path d="M751.1467,196.1097 C746.4789,213.8128 740.525,234.1658 733.7942,252.1822 C728.9435,265.1581 722.846,278.8691 716.8921,291.3495 " fill="none" style="stroke: #A80036; stroke-width: 0.65284178187404;"/><polygon fill="#A80036" points="715.3775,294.4949,720.2775,290.3317,716.7923,291.5532,715.5708,288.068,715.3775,294.4949" style="stroke: #A80036; stroke-width: 0.65284178187404;"/><text fill="#000000" font-family="Helvetica Neue" font-size="8.4869" lengthAdjust="spacingAndGlyphs" textLength="41.129" x="741.6283" y="242.97">destination</text><text fill="#000000" font-family="Helvetica Neue" font-size="8.4869" lengthAdjust="spacingAndGlyphs" textLength="14.3625" x="737.686" y="209.4392">0..1</text><text fill="#000000" font-family="Helvetica Neue" font-size="8.4869" lengthAdjust="spacingAndGlyphs" textLength="4.5699" x="721.1674" y="287.0535">1</text><path d="M385.1558,179.7736 C392.038,194.0382 399.3368,211.7903 402.8034,228.6799 C404.9036,238.9119 403.199,241.744 402.8034,252.1822 C400.3356,317.3163 402.9744,334.2196 391.7051,398.4188 C379.1992,469.6628 354.4369,550.2809 338.8856,597.3012 " fill="none" style="stroke: #A80036; stroke-width: 0.65284178187404;"/><polygon fill="#A80036" points="337.7823,600.6281,342.1108,595.8735,338.8101,597.5299,337.1537,594.2291,337.7823,600.6281" style="stroke: #A80036; stroke-width: 0.65284178187404;"/><text fill="#000000" font-family="Helvetica Neue" font-size="8.4869" lengthAdjust="spacingAndGlyphs" textLength="47.6575" x="388.4409" y="427.0714">provisions in</text><text fill="#000000" font-family="Helvetica Neue" font-size="8.4869" lengthAdjust="spacingAndGlyphs" textLength="13.0568" x="380.4019" y="193.5086">0..*</text><text fill="#000000" font-family="Helvetica Neue" font-size="8.4869" lengthAdjust="spacingAndGlyphs" textLength="4.5699" x="341.8491" y="593.0635">1</text><path d="M380.2137,622.1882 C399.5548,621.9517 415.2074,627.0085 415.2074,637.3589 C415.2074,648.308 397.691,653.3335 376.8222,652.4353 " fill="none" style="stroke: #A80036; stroke-width: 0.65284178187404;"/><polygon fill="#A80036" points="376.8222,622.2825,382.7679,624.73,380.0852,622.192,382.6232,619.5093,376.8222,622.2825" style="stroke: #A80036; stroke-width: 0.65284178187404;"/><text fill="#000000" font-family="Helvetica Neue" font-size="8.4869" lengthAdjust="spacingAndGlyphs" textLength="45.0461" x="472.0046" y="615.7427">be parent of</text><polygon fill="#FBFB77" filter="url(#f1)" points="418.4716,625.3427,418.4716,663.2075,567.9724,663.2075,567.9724,631.8711,561.4439,625.3427,418.4716,625.3427" style="stroke: #A80036; stroke-width: 0.65284178187404;"/><line style="stroke: #A80036; stroke-width: 0.65284178187404;" x1="561.4439" x2="561.4439" y1="625.3427" y2="631.8711"/><line style="stroke: #A80036; stroke-width: 0.65284178187404;" x1="567.9724" x2="561.4439" y1="631.8711" y2="631.8711"/><text fill="#000000" font-family="Helvetica Neue" font-size="8.4869" lengthAdjust="spacingAndGlyphs" textLength="126.6513" x="422.3886" y="636.695">Foreign keys cannot be stored on</text><text fill="#000000" font-family="Helvetica Neue" font-size="8.4869" lengthAdjust="spacingAndGlyphs" textLength="101.1905" x="422.3886" y="647.2018">target HostgroupResource.</text><text fill="#000000" font-family="Helvetica Neue" font-size="8.4869" lengthAdjust="spacingAndGlyphs" textLength="135.7911" x="422.3886" y="657.7087">It would prevent Stack share-ability.</text><text fill="#000000" font-family="Helvetica Neue" font-size="8.4869" lengthAdjust="spacingAndGlyphs" textLength="13.0568" x="381.9086" y="626.094">0..*</text><text fill="#000000" font-family="Helvetica Neue" font-size="8.4869" lengthAdjust="spacingAndGlyphs" textLength="14.3625" x="381.8474" y="659.8561">0..1</text><path d="M328.7731,37.1466 C248.2535,41.3013 72.5497,54.4743 26.7665,91.5832 C4.9999,109.2262 3.9171,122.3203 3.9171,150.3389 C3.9171,150.3389 3.9171,150.3389 3.9171,487.2053 C3.9171,545.837 181.7792,600.3552 272.7945,624.4148 " fill="none" style="stroke: #808080; stroke-width: 0.65284178187404;"/><polygon fill="none" points="328.7098,32.5728,341.9735,36.5029,329.155,41.7034,328.7098,32.5728" style="stroke: #808080; stroke-width: 0.65284178187404;"/><path d="M369.5084,64.4928 C369.5084,82.1653 369.5084,104.6465 369.5084,122.2602 " fill="none" style="stroke: #808080; stroke-width: 0.65284178187404;"/><polygon fill="none" points="364.9386,64.3205,369.5084,51.2637,374.0783,64.3205,364.9386,64.3205" style="stroke: #808080; stroke-width: 0.65284178187404;"/><path d="M409.9481,39.1978 C474.3,45.9867 595.9016,62.3731 626.7281,91.5832 C655.9702,119.2924 677.8065,232.4403 687.8537,294.5119 " fill="none" style="stroke: #808080; stroke-width: 0.65284178187404;"/><polygon fill="none" points="409.4793,43.7436,396.952,37.8752,410.4044,34.6508,409.4793,43.7436" style="stroke: #808080; stroke-width: 0.65284178187404;"/><path d="M693.9708,389.4683 C693.9708,415.0382 693.9708,444.3038 693.9708,464.2246 " fill="none" style="stroke: #808080; stroke-width: 0.65284178187404;"/><polygon fill="none" points="689.4009,389.3665,693.9708,376.3097,698.5407,389.3665,689.4009,389.3665" style="stroke: #808080; stroke-width: 0.65284178187404;"/><path d="M637.797,385.1113 C607.639,411.6134 571.8803,443.0379 548.0783,463.9543 " fill="none" style="stroke: #808080; stroke-width: 0.65284178187404;"/><polygon fill="none" points="634.9598,381.5206,647.7842,376.3345,640.9927,388.3859,634.9598,381.5206" style="stroke: #808080; stroke-width: 0.65284178187404;"/><path d="M328.8997,39.0614 C295.877,43.2572 248.813,52.145 211.5207,70.6922 C191.6456,80.5769 172.4397,95.5061 156.5821,109.821 " fill="none" style="stroke: #808080; stroke-width: 0.65284178187404;"/><polygon fill="none" points="328.4094,34.5176,341.905,37.5579,329.4592,43.5967,328.4094,34.5176" style="stroke: #808080; stroke-width: 0.65284178187404;"/><path d="M330.0004,50.9248 C309.7134,60.3597 285.681,74.0061 268.318,91.5832 C226.6249,133.7913 235.6132,158.2794 204.9923,209.0947 C186.3452,240.04 163.4546,273.9924 146.1471,298.9479 " fill="none" style="stroke: #808080; stroke-width: 0.65284178187404;"/><polygon fill="none" points="328.2658,46.6951,342.0551,45.5963,331.9603,55.0547,328.2658,46.6951" style="stroke: #808080; stroke-width: 0.65284178187404;"/><path d="M331.0587,57.2907 C318.6292,66.2973 306.0751,77.867 298.3487,91.5832 C264.4871,151.6968 272.3604,234.06 282.5897,286.0863 " fill="none" style="stroke: #808080; stroke-width: 0.65284178187404;"/><polygon fill="none" points="328.6725,53.388,342.0591,49.8999,333.7699,60.9747,328.6725,53.388" style="stroke: #808080; stroke-width: 0.65284178187404;"/><path d="M406.2262,58.9013 C418.2294,67.9653 430.8233,79.1596 440.0154,91.5832 C473.4095,136.7154 460.3488,159.3442 486.3671,209.0947 C491.2151,218.365 495.5578,218.9591 499.424,228.6799 C509.0064,252.7724 513.5684,281.8715 515.7391,303.6484 " fill="none" style="stroke: #808080; stroke-width: 0.65284178187404;"/><polygon fill="none" points="403.434,62.5226,395.4844,51.2016,408.7586,55.0939,403.434,62.5226" style="stroke: #808080; stroke-width: 0.65284178187404;"/><path d="M409.8345,43.2285 C431.6871,48.666 458.5038,57.384 479.8387,70.6922 C500.082,83.3195 518.7226,102.4517 532.5949,118.8733 " fill="none" style="stroke: #808080; stroke-width: 0.65284178187404;"/><polygon fill="none" points="408.6561,47.6469,396.9624,40.2554,410.7132,38.7415,408.6561,47.6469" style="stroke: #808080; stroke-width: 0.65284178187404;"/><path d="M410.2268,37.3842 C480.5196,41.219 621.4368,51.1311 666.5515,70.6922 C685.3141,78.826 703.2085,91.8972 718.3283,105.1512 " fill="none" style="stroke: #808080; stroke-width: 0.65284178187404;"/><polygon fill="none" points="409.9585,41.947,397.1596,36.6975,410.4384,32.8209,409.9585,41.947" style="stroke: #808080; stroke-width: 0.65284178187404;"/><polygon fill="#DDDDDD" points="304.5507,698.726,304.5507,727.8844,544.7965,727.8844,544.7965,698.726,304.5507,698.726" style="stroke: #000000; stroke-width: 0.65284178187404;"/><text fill="#000000" font-family="Helvetica Neue" font-size="9.1398" lengthAdjust="spacingAndGlyphs" textLength="120.7757" x="308.4677" y="710.7004">All types share a single table.</text><text fill="#000000" font-family="Helvetica Neue" font-size="9.1398" lengthAdjust="spacingAndGlyphs" textLength="232.4117" x="308.4677" y="722.0154">It's using STI. Plugins can add another implementations.</text></g></svg>