<?xml version="1.0" encoding="UTF-8" standalone="yes"?><svg xmlns="http://www.w3.org/2000/svg" xmlns:xlink="http://www.w3.org/1999/xlink" height="676.9025pt" style="width:820px;height:676px;" version="1.1" viewBox="0 0 820 676" width="820.8467pt"><defs><filter height="300%" id="f1" width="300%" x="-1" y="-1"><feGaussianBlur result="blurOut" stdDeviation="1.8220793140407288"/><feColorMatrix in="blurOut" result="blurOut2" type="matrix" values="0 0 0 0 0 0 0 0 0 0 0 0 0 0 0 0 0 0 .4 0"/><feOffset dx="3.6441586280814575" dy="3.6441586280814575" in="blurOut2" result="blurOut3"/><feBlend in="SourceGraphic" in2="blurOut3" mode="normal"/></filter></defs><g><text fill="#000000" font-family="Helvetica Neue" font-size="16.3987" lengthAdjust="spacingAndGlyphs" textLength="184.03" x="332.985" y="15.6279">Ordered Resource Types</text><rect fill="#FEFECE" filter="url(#f1)" height="77.3051" style="stroke: #A80036; stroke-width: 1.3665594855305465;" width="211.3612" x="283.3333" y="28.0453"/><ellipse cx="360.9995" cy="42.622" fill="#A9DCDF" rx="10.0214" ry="10.0214" style="stroke: #A80036; stroke-width: 0.9110396570203644;"/><path d="M362.8927,44.2732 L363.2486,45.17 L362.8927,45.17 C362.4799,45.17 362.3803,45.1843 362.2379,45.2839 C362.0101,45.4262 361.8678,45.6825 361.8678,45.9529 C361.8678,46.1949 361.9959,46.4227 362.1952,46.565 C362.3233,46.6789 362.5084,46.7216 362.8927,46.7216 L365.0422,46.7216 C365.3696,46.7216 365.5689,46.6932 365.697,46.6078 C365.9248,46.4796 366.0671,46.2092 366.0671,45.9529 C366.0671,45.6967 365.939,45.469 365.7397,45.3266 C365.5831,45.1985 365.4408,45.17 365.0137,45.17 L361.9247,37.6966 L358.5795,37.6966 C358.1667,37.6966 358.0528,37.7109 357.9105,37.7963 C357.6827,37.9529 357.5404,38.2091 357.5404,38.4653 C357.5404,38.7216 357.6685,38.9493 357.8678,39.1059 C358.0244,39.2056 358.1809,39.234 358.5795,39.234 L359.5617,39.234 L357.156,45.17 C356.7717,45.17 356.6293,45.1843 356.487,45.2839 C356.2592,45.4262 356.1169,45.6825 356.1169,45.9529 C356.1169,46.4654 356.4585,46.7216 357.1418,46.7216 L359.2059,46.7216 C359.5333,46.7216 359.7325,46.6932 359.8464,46.6078 C360.0884,46.4796 360.2165,46.2092 360.2165,45.9529 C360.2165,45.6967 360.1027,45.469 359.9034,45.3124 C359.7468,45.1985 359.6187,45.17 359.2059,45.17 L358.85,45.17 L359.2059,44.2732 L362.8927,44.2732 Z M362.2521,42.7216 L359.818,42.7216 L361.0422,39.7465 L362.2521,42.7216 Z "/><text fill="#000000" font-family="Helvetica Neue" font-size="10.9325" font-style="italic" lengthAdjust="spacingAndGlyphs" textLength="48.2851" x="379.6758" y="46.421">Resource</text><line style="stroke: #A80036; stroke-width: 1.3665594855305465;" x1="284.2444" x2="493.7835" y1="57.1986" y2="57.1986"/><text fill="#000000" font-family="Helvetica Neue" font-size="10.0214" lengthAdjust="spacingAndGlyphs" textLength="200.4287" x="288.7996" y="86.4437">A Foreman object to be configured or created</text><text fill="#000000" font-family="Helvetica Neue" font-size="10.0214" lengthAdjust="spacingAndGlyphs" textLength="143.0332" x="288.7996" y="98.8502">to form an Deployment instance.</text><line style="stroke: #A80036; stroke-width: 0.9110396570203644; stroke-dasharray: 1.0,2.0;" x1="284.2444" x2="376.7149" y1="70.6901" y2="70.6901"/><text fill="#000000" font-family="Helvetica Neue" font-size="10.0214" lengthAdjust="spacingAndGlyphs" textLength="24.5981" x="376.7149" y="73.5817">notes</text><line style="stroke: #A80036; stroke-width: 0.9110396570203644; stroke-dasharray: 1.0,2.0;" x1="401.313" x2="493.7835" y1="70.6901" y2="70.6901"/><rect fill="#FEFECE" filter="url(#f1)" height="64.8986" style="stroke: #A80036; stroke-width: 1.3665594855305465;" width="251.4469" x="263.2905" y="221.1857"/><ellipse cx="364.6436" cy="235.7624" fill="#DA70D6" rx="10.0214" ry="10.0214" style="stroke: #A80036; stroke-width: 0.9110396570203644;"/><path d="M366.5369,237.4136 L366.8928,238.3104 L366.5369,238.3104 C366.1241,238.3104 366.0244,238.3247 365.8821,238.4243 C365.6543,238.5667 365.512,238.8229 365.512,239.0933 C365.512,239.3353 365.6401,239.5631 365.8394,239.7055 C365.9675,239.8193 366.1525,239.862 366.5369,239.862 L368.6864,239.862 C369.0138,239.862 369.2131,239.8336 369.3412,239.7482 C369.5689,239.62 369.7113,239.3496 369.7113,239.0933 C369.7113,238.8371 369.5832,238.6094 369.3839,238.467 C369.2273,238.3389 369.0849,238.3104 368.6579,238.3104 L365.5689,230.8371 L362.2237,230.8371 C361.8109,230.8371 361.697,230.8513 361.5546,230.9367 C361.3269,231.0933 361.1845,231.3495 361.1845,231.6057 C361.1845,231.862 361.3126,232.0897 361.5119,232.2463 C361.6685,232.346 361.8251,232.3744 362.2237,232.3744 L363.2059,232.3744 L360.8002,238.3104 C360.4158,238.3104 360.2735,238.3247 360.1311,238.4243 C359.9034,238.5667 359.761,238.8229 359.761,239.0933 C359.761,239.6058 360.1027,239.862 360.7859,239.862 L362.85,239.862 C363.1774,239.862 363.3767,239.8336 363.4906,239.7482 C363.7326,239.62 363.8607,239.3496 363.8607,239.0933 C363.8607,238.8371 363.7468,238.6094 363.5475,238.4528 C363.3909,238.3389 363.2628,238.3104 362.85,238.3104 L362.4941,238.3104 L362.85,237.4136 L366.5369,237.4136 Z M365.8963,235.862 L363.4621,235.862 L364.6863,232.8869 L365.8963,235.862 Z "/><text fill="#000000" font-family="Helvetica Neue" font-size="10.9325" font-style="italic" lengthAdjust="spacingAndGlyphs" textLength="40.9968" x="383.3199" y="239.5614">Ordered</text><line style="stroke: #A80036; stroke-width: 1.3665594855305465;" x1="264.2015" x2="513.8264" y1="250.339" y2="250.339"/><text fill="#000000" font-family="Helvetica Neue" font-size="10.0214" lengthAdjust="spacingAndGlyphs" textLength="240.5145" x="268.7567" y="279.5841">Resources that are ordered and executed via dynflow.</text><line style="stroke: #A80036; stroke-width: 0.9110396570203644; stroke-dasharray: 1.0,2.0;" x1="264.2015" x2="376.7149" y1="263.8305" y2="263.8305"/><text fill="#000000" font-family="Helvetica Neue" font-size="10.0214" lengthAdjust="spacingAndGlyphs" textLength="24.5981" x="376.7149" y="266.7222">notes</text><line style="stroke: #A80036; stroke-width: 0.9110396570203644; stroke-dasharray: 1.0,2.0;" x1="401.313" x2="513.8264" y1="263.8305" y2="263.8305"/><rect fill="#FEFECE" filter="url(#f1)" height="51.0293" style="stroke: #A80036; stroke-width: 1.3665594855305465;" width="131.1897" x="5.4662" y="378.3401"/><ellipse cx="19.1318" cy="396.5664" fill="#008000" rx="10.0214" ry="10.0214" style="stroke: #A80036; stroke-width: 0.9110396570203644;"/><path d="M21.2671,392.6233 C20.413,392.2247 19.8721,392.0966 19.0749,392.0966 C16.6834,392.0966 14.8613,393.9899 14.8613,396.4668 L14.8613,397.4917 C14.8613,399.8405 16.7831,401.5629 19.4165,401.5629 C20.5269,401.5629 21.5803,401.2924 22.2635,400.7942 C22.7902,400.4241 23.0892,400.0113 23.0892,399.6554 C23.0892,399.2426 22.7333,398.8867 22.3062,398.8867 C22.1069,398.8867 21.9219,398.9579 21.7511,399.1287 C21.3383,399.57 21.3383,399.57 21.1674,399.6554 C20.7831,399.8974 20.1568,400.0113 19.4592,400.0113 C17.5945,400.0113 16.4129,399.0148 16.4129,397.4632 L16.4129,396.4668 C16.4129,394.844 17.5517,393.6482 19.1318,393.6482 C19.6585,393.6482 20.2137,393.7906 20.6407,394.0184 C21.082,394.2746 21.2386,394.4739 21.324,394.844 C21.381,395.2141 21.4094,395.328 21.5375,395.4419 C21.6657,395.57 21.8792,395.6696 22.0785,395.6696 C22.3205,395.6696 22.5625,395.5415 22.7191,395.3422 C22.8187,395.1999 22.8472,395.029 22.8472,394.6447 L22.8472,393.3493 C22.8472,392.9507 22.8329,392.8369 22.7475,392.6945 C22.6052,392.4525 22.3489,392.3244 22.0785,392.3244 C21.808,392.3244 21.623,392.4098 21.4237,392.6945 L21.2671,392.6233 Z "/><text fill="#000000" font-family="Helvetica Neue" font-size="10.9325" font-style="italic" lengthAdjust="spacingAndGlyphs" textLength="53.7513" x="56.0289" y="393.5982">«Ordered»</text><text fill="#000000" font-family="Helvetica Neue" font-size="10.9325" lengthAdjust="spacingAndGlyphs" textLength="102.0364" x="31.8864" y="407.1218">ChildStackResource</text><line style="stroke: #A80036; stroke-width: 1.3665594855305465;" x1="6.3773" x2="135.7449" y1="414.7928" y2="414.7928"/><line style="stroke: #A80036; stroke-width: 1.3665594855305465;" x1="6.3773" x2="135.7449" y1="422.0811" y2="422.0811"/><rect fill="#FEFECE" filter="url(#f1)" height="84.6045" style="stroke: #A80036; stroke-width: 1.3665594855305465;" width="169.4534" x="191.3183" y="362.8524"/><ellipse cx="206.6238" cy="381.0787" fill="#008000" rx="10.0214" ry="10.0214" style="stroke: #A80036; stroke-width: 0.9110396570203644;"/><path d="M208.759,377.1357 C207.9049,376.7371 207.364,376.609 206.5669,376.609 C204.1754,376.609 202.3533,378.5022 202.3533,380.9791 L202.3533,382.004 C202.3533,384.3528 204.275,386.0752 206.9085,386.0752 C208.0188,386.0752 209.0722,385.8048 209.7555,385.3065 C210.2822,384.9364 210.5811,384.5236 210.5811,384.1677 C210.5811,383.7549 210.2252,383.3991 209.7982,383.3991 C209.5989,383.3991 209.4139,383.4702 209.243,383.641 C208.8302,384.0823 208.8302,384.0823 208.6594,384.1677 C208.2751,384.4097 207.6487,384.5236 206.9512,384.5236 C205.0864,384.5236 203.9049,383.5272 203.9049,381.9756 L203.9049,380.9791 C203.9049,379.3563 205.0437,378.1606 206.6238,378.1606 C207.1505,378.1606 207.7057,378.3029 208.1327,378.5307 C208.574,378.7869 208.7306,378.9862 208.816,379.3563 C208.8729,379.7264 208.9014,379.8403 209.0295,379.9542 C209.1576,380.0823 209.3711,380.1819 209.5704,380.1819 C209.8124,380.1819 210.0544,380.0538 210.211,379.8545 C210.3107,379.7122 210.3391,379.5414 210.3391,379.157 L210.3391,377.8616 C210.3391,377.4631 210.3249,377.3492 210.2395,377.2068 C210.0971,376.9648 209.8409,376.8367 209.5704,376.8367 C209.3,376.8367 209.1149,376.9221 208.9156,377.2068 L208.759,377.1357 Z "/><text fill="#000000" font-family="Helvetica Neue" font-size="10.9325" font-style="italic" lengthAdjust="spacingAndGlyphs" textLength="53.7513" x="261.1951" y="378.1106">«Ordered»</text><text fill="#000000" font-family="Helvetica Neue" font-size="10.9325" lengthAdjust="spacingAndGlyphs" textLength="136.6559" x="219.7428" y="391.6341">ParameterUpdateResource</text><line style="stroke: #A80036; stroke-width: 1.3665594855305465;" x1="192.2294" x2="359.8607" y1="399.3051" y2="399.3051"/><text fill="#000000" font-family="Helvetica Neue" font-size="10.0214" lengthAdjust="spacingAndGlyphs" textLength="57.3955" x="196.7846" y="412.4996">Staring value</text><text fill="#000000" font-family="Helvetica Neue" font-size="10.0214" lengthAdjust="spacingAndGlyphs" textLength="158.5209" x="196.7846" y="440.9567">possibly ERB to compute new value</text><line style="stroke: #A80036; stroke-width: 0.9110396570203644; stroke-dasharray: 1.0,2.0;" x1="192.2294" x2="263.746" y1="425.2031" y2="425.2031"/><text fill="#000000" font-family="Helvetica Neue" font-size="10.0214" lengthAdjust="spacingAndGlyphs" textLength="24.5981" x="263.746" y="428.0947">notes</text><line style="stroke: #A80036; stroke-width: 0.9110396570203644; stroke-dasharray: 1.0,2.0;" x1="288.3441" x2="359.8607" y1="425.2031" y2="425.2031"/><rect fill="#FEFECE" filter="url(#f1)" height="51.0293" style="stroke: #A80036; stroke-width: 1.3665594855305465;" width="133.9228" x="436.388" y="379.2511"/><ellipse cx="450.0536" cy="397.4775" fill="#008000" rx="10.0214" ry="10.0214" style="stroke: #A80036; stroke-width: 0.9110396570203644;"/><path d="M452.1888,393.5344 C451.3347,393.1358 450.7938,393.0077 449.9967,393.0077 C447.6052,393.0077 445.7831,394.9009 445.7831,397.3778 L445.7831,398.4027 C445.7831,400.7515 447.7048,402.4739 450.3383,402.4739 C451.4486,402.4739 452.502,402.2035 453.1853,401.7053 C453.712,401.3351 454.0109,400.9223 454.0109,400.5665 C454.0109,400.1536 453.655,399.7978 453.228,399.7978 C453.0287,399.7978 452.8436,399.8689 452.6728,400.0398 C452.26,400.481 452.26,400.481 452.0892,400.5665 C451.7048,400.8084 451.0785,400.9223 450.381,400.9223 C448.5162,400.9223 447.3347,399.9259 447.3347,398.3743 L447.3347,397.3778 C447.3347,395.755 448.4735,394.5593 450.0536,394.5593 C450.5803,394.5593 451.1355,394.7016 451.5625,394.9294 C452.0038,395.1856 452.1604,395.3849 452.2458,395.755 C452.3027,396.1251 452.3312,396.239 452.4593,396.3529 C452.5874,396.481 452.8009,396.5807 453.0002,396.5807 C453.2422,396.5807 453.4842,396.4525 453.6408,396.2533 C453.7405,396.1109 453.7689,395.9401 453.7689,395.5557 L453.7689,394.2604 C453.7689,393.8618 453.7547,393.7479 453.6693,393.6055 C453.5269,393.3635 453.2707,393.2354 453.0002,393.2354 C452.7298,393.2354 452.5447,393.3208 452.3454,393.6055 L452.1888,393.5344 Z "/><text fill="#000000" font-family="Helvetica Neue" font-size="10.9325" font-style="italic" lengthAdjust="spacingAndGlyphs" textLength="53.7513" x="488.3173" y="394.5093">«Ordered»</text><text fill="#000000" font-family="Helvetica Neue" font-size="10.9325" lengthAdjust="spacingAndGlyphs" textLength="104.7696" x="462.8081" y="408.0328">PuppetRunResource</text><line style="stroke: #A80036; stroke-width: 1.3665594855305465;" x1="437.299" x2="569.3998" y1="415.7038" y2="415.7038"/><line style="stroke: #A80036; stroke-width: 1.3665594855305465;" x1="437.299" x2="569.3998" y1="422.9921" y2="422.9921"/><rect fill="#FEFECE" filter="url(#f1)" height="51.0293" style="stroke: #A80036; stroke-width: 1.3665594855305465;" width="165.8092" x="646.8382" y="379.2511"/><ellipse cx="660.5038" cy="397.4775" fill="#008000" rx="10.0214" ry="10.0214" style="stroke: #A80036; stroke-width: 0.9110396570203644;"/><path d="M662.639,393.5344 C661.7849,393.1358 661.244,393.0077 660.4468,393.0077 C658.0553,393.0077 656.2333,394.9009 656.2333,397.3778 L656.2333,398.4027 C656.2333,400.7515 658.155,402.4739 660.7885,402.4739 C661.8988,402.4739 662.9522,402.2035 663.6355,401.7053 C664.1621,401.3351 664.4611,400.9223 664.4611,400.5665 C664.4611,400.1536 664.1052,399.7978 663.6782,399.7978 C663.4789,399.7978 663.2938,399.8689 663.123,400.0398 C662.7102,400.481 662.7102,400.481 662.5394,400.5665 C662.155,400.8084 661.5287,400.9223 660.8312,400.9223 C658.9664,400.9223 657.7849,399.9259 657.7849,398.3743 L657.7849,397.3778 C657.7849,395.755 658.9237,394.5593 660.5038,394.5593 C661.0304,394.5593 661.5856,394.7016 662.0127,394.9294 C662.4539,395.1856 662.6105,395.3849 662.6959,395.755 C662.7529,396.1251 662.7814,396.239 662.9095,396.3529 C663.0376,396.481 663.2511,396.5807 663.4504,396.5807 C663.6924,396.5807 663.9344,396.4525 664.091,396.2533 C664.1906,396.1109 664.2191,395.9401 664.2191,395.5557 L664.2191,394.2604 C664.2191,393.8618 664.2048,393.7479 664.1194,393.6055 C663.9771,393.3635 663.7209,393.2354 663.4504,393.2354 C663.1799,393.2354 662.9949,393.3208 662.7956,393.6055 L662.639,393.5344 Z "/><text fill="#000000" font-family="Helvetica Neue" font-size="10.9325" font-style="italic" lengthAdjust="spacingAndGlyphs" textLength="53.7513" x="714.7106" y="394.5093">«Ordered»</text><text fill="#000000" font-family="Helvetica Neue" font-size="10.9325" lengthAdjust="spacingAndGlyphs" textLength="136.6559" x="673.2583" y="408.0328">RemoteExecutionResource</text><line style="stroke: #A80036; stroke-width: 1.3665594855305465;" x1="647.7492" x2="811.7363" y1="415.7038" y2="415.7038"/><line style="stroke: #A80036; stroke-width: 1.3665594855305465;" x1="647.7492" x2="811.7363" y1="422.9921" y2="422.9921"/><rect fill="#FEFECE" filter="url(#f1)" height="43.7299" style="stroke: #A80036; stroke-width: 1.3665594855305465;" width="100.2144" x="566.6667" y="557.8149"/><ellipse cx="580.3323" cy="572.3915" fill="#ADD1B2" rx="10.0214" ry="10.0214" style="stroke: #A80036; stroke-width: 0.9110396570203644;"/><path d="M582.4675,568.4484 C581.6134,568.0498 581.0725,567.9217 580.2753,567.9217 C577.8838,567.9217 576.0618,569.815 576.0618,572.2919 L576.0618,573.3168 C576.0618,575.6656 577.9835,577.388 580.617,577.388 C581.7273,577.388 582.7807,577.1175 583.464,576.6193 C583.9907,576.2492 584.2896,575.8364 584.2896,575.4805 C584.2896,575.0677 583.9337,574.7118 583.5067,574.7118 C583.3074,574.7118 583.1223,574.783 582.9515,574.9538 C582.5387,575.3951 582.5387,575.3951 582.3679,575.4805 C581.9835,575.7225 581.3572,575.8364 580.6597,575.8364 C578.7949,575.8364 577.6134,574.8399 577.6134,573.2883 L577.6134,572.2919 C577.6134,570.6691 578.7522,569.4733 580.3323,569.4733 C580.859,569.4733 581.4141,569.6157 581.8412,569.8434 C582.2825,570.0997 582.439,570.299 582.5245,570.6691 C582.5814,571.0392 582.6099,571.1531 582.738,571.2669 C582.8661,571.3951 583.0796,571.4947 583.2789,571.4947 C583.5209,571.4947 583.7629,571.3666 583.9195,571.1673 C584.0191,571.025 584.0476,570.8541 584.0476,570.4698 L584.0476,569.1744 C584.0476,568.7758 584.0334,568.6619 583.948,568.5196 C583.8056,568.2776 583.5494,568.1495 583.2789,568.1495 C583.0084,568.1495 582.8234,568.2349 582.6241,568.5196 L582.4675,568.4484 Z "/><text fill="#000000" font-family="Helvetica Neue" font-size="10.9325" lengthAdjust="spacingAndGlyphs" textLength="71.0611" x="593.0868" y="576.043">HostResource</text><line style="stroke: #A80036; stroke-width: 1.3665594855305465;" x1="567.5777" x2="665.97" y1="586.9681" y2="586.9681"/><line style="stroke: #A80036; stroke-width: 1.3665594855305465;" x1="567.5777" x2="665.97" y1="594.2565" y2="594.2565"/><rect fill="#FEFECE" filter="url(#f1)" height="43.7299" style="stroke: #A80036; stroke-width: 1.3665594855305465;" width="129.3676" x="211.3612" y="557.8149"/><ellipse cx="225.0268" cy="572.3915" fill="#ADD1B2" rx="10.0214" ry="10.0214" style="stroke: #A80036; stroke-width: 0.9110396570203644;"/><path d="M227.162,568.4484 C226.3079,568.0498 225.767,567.9217 224.9699,567.9217 C222.5784,567.9217 220.7563,569.815 220.7563,572.2919 L220.7563,573.3168 C220.7563,575.6656 222.678,577.388 225.3115,577.388 C226.4218,577.388 227.4752,577.1175 228.1585,576.6193 C228.6852,576.2492 228.9841,575.8364 228.9841,575.4805 C228.9841,575.0677 228.6282,574.7118 228.2012,574.7118 C228.0019,574.7118 227.8169,574.783 227.646,574.9538 C227.2332,575.3951 227.2332,575.3951 227.0624,575.4805 C226.6781,575.7225 226.0517,575.8364 225.3542,575.8364 C223.4894,575.8364 222.3079,574.8399 222.3079,573.2883 L222.3079,572.2919 C222.3079,570.6691 223.4467,569.4733 225.0268,569.4733 C225.5535,569.4733 226.1087,569.6157 226.5357,569.8434 C226.977,570.0997 227.1336,570.299 227.219,570.6691 C227.2759,571.0392 227.3044,571.1531 227.4325,571.2669 C227.5606,571.3951 227.7741,571.4947 227.9734,571.4947 C228.2154,571.4947 228.4574,571.3666 228.614,571.1673 C228.7137,571.025 228.7421,570.8541 228.7421,570.4698 L228.7421,569.1744 C228.7421,568.7758 228.7279,568.6619 228.6425,568.5196 C228.5001,568.2776 228.2439,568.1495 227.9734,568.1495 C227.703,568.1495 227.5179,568.2349 227.3186,568.5196 L227.162,568.4484 Z "/><text fill="#000000" font-family="Helvetica Neue" font-size="10.9325" lengthAdjust="spacingAndGlyphs" textLength="100.2144" x="237.7814" y="576.043">ParameterResource</text><line style="stroke: #A80036; stroke-width: 1.3665594855305465;" x1="212.2722" x2="339.8178" y1="586.9681" y2="586.9681"/><line style="stroke: #A80036; stroke-width: 1.3665594855305465;" x1="212.2722" x2="339.8178" y1="594.2565" y2="594.2565"/><path d="M389.0139,124.211 C389.0139,155.9899 389.0139,194.3201 389.0139,220.9616 " fill="none" style="stroke: #808080; stroke-width: 0.9110396570203644;"/><polygon fill="none" points="382.6367,124.1372,389.0139,105.9164,395.3912,124.1372,382.6367,124.1372" style="stroke: #808080; stroke-width: 0.9110396570203644;"/><path d="M266.5192,292.1557 C228.8277,306.0181 187.8764,323.1548 152.1436,342.8095 C134.0804,352.7453 115.5918,366.349 100.8393,378.1925 " fill="none" style="stroke: #808080; stroke-width: 0.9110396570203644;"/><polygon fill="none" points="264.5586,286.0845,283.8617,285.9206,268.8742,298.0866,264.5586,286.0845" style="stroke: #808080; stroke-width: 0.9110396570203644;"/><path d="M353.7494,300.7368 C338.9614,320.5337 321.9022,343.3707 307.5424,362.5946 " fill="none" style="stroke: #808080; stroke-width: 0.9110396570203644;"/><polygon fill="none" points="348.766,296.7519,364.7794,285.9707,358.9842,304.3855,348.766,296.7519" style="stroke: #808080; stroke-width: 0.9110396570203644;"/><path d="M424.682,300.5191 C444.3687,326.4554 468.0566,357.6631 484.3524,379.1318 " fill="none" style="stroke: #808080; stroke-width: 0.9110396570203644;"/><polygon fill="none" points="419.5757,304.34,413.6393,285.9707,429.7356,296.6289,419.5757,304.34" style="stroke: #808080; stroke-width: 0.9110396570203644;"/><path d="M490.0236,292.7643 C527.2852,307.7636 569.6685,325.4469 607.6635,342.8095 C632.3071,354.0709 659.211,367.588 681.4759,379.1181 " fill="none" style="stroke: #808080; stroke-width: 0.9110396570203644;"/><polygon fill="none" points="487.5702,298.6514,473.0218,285.9625,492.3076,286.8088,487.5702,298.6514" style="stroke: #808080; stroke-width: 0.9110396570203644;"/><path d="M520.4742,430.57 C541.8235,463.628 578.615,520.5953 600.0107,553.7238 " fill="none" style="stroke: #A80036; stroke-width: 0.9110396570203644;"/><polygon fill="#A80036" points="602.5416,557.6424,601.1544,548.7776,600.0702,553.8159,595.0319,552.7318,602.5416,557.6424" style="stroke: #A80036; stroke-width: 0.9110396570203644;"/><text fill="#000000" font-family="Helvetica Neue" font-size="11.8435" lengthAdjust="spacingAndGlyphs" textLength="12.7546" x="572.1329" y="504.8735">on</text><text fill="#000000" font-family="Helvetica Neue" font-size="11.8435" lengthAdjust="spacingAndGlyphs" textLength="18.2208" x="515.1198" y="448.838">0..*</text><text fill="#000000" font-family="Helvetica Neue" font-size="11.8435" lengthAdjust="spacingAndGlyphs" textLength="6.3773" x="595.1127" y="547.1443">1</text><path d="M713.0735,430.57 C691.7242,463.628 654.9327,520.5953 633.537,553.7238 " fill="none" style="stroke: #A80036; stroke-width: 0.9110396570203644;"/><polygon fill="#A80036" points="631.0061,557.6424,638.5158,552.7318,633.4775,553.8159,632.3933,548.7776,631.0061,557.6424" style="stroke: #A80036; stroke-width: 0.9110396570203644;"/><text fill="#000000" font-family="Helvetica Neue" font-size="11.8435" lengthAdjust="spacingAndGlyphs" textLength="12.7546" x="674.1693" y="504.8735">on</text><text fill="#000000" font-family="Helvetica Neue" font-size="11.8435" lengthAdjust="spacingAndGlyphs" textLength="18.2208" x="687.566" y="448.9774">0..*</text><text fill="#000000" font-family="Helvetica Neue" font-size="11.8435" lengthAdjust="spacingAndGlyphs" textLength="6.3773" x="642.1945" y="547.296">1</text><path d="M276.045,447.1035 C276.045,480.0786 276.045,524.8362 276.045,552.9871 " fill="none" style="stroke: #A80036; stroke-width: 0.9110396570203644;"/><polygon fill="#A80036" points="276.045,557.7005,279.6892,549.5011,276.045,553.1453,272.4009,549.5011,276.045,557.7005" style="stroke: #A80036; stroke-width: 0.9110396570203644;"/><text fill="#000000" font-family="Helvetica Neue" font-size="11.8435" lengthAdjust="spacingAndGlyphs" textLength="41.9078" x="276.9561" y="504.8735">updates</text><text fill="#000000" font-family="Helvetica Neue" font-size="11.8435" lengthAdjust="spacingAndGlyphs" textLength="18.2208" x="262.0236" y="465.9054">0..*</text><text fill="#000000" font-family="Helvetica Neue" font-size="11.8435" lengthAdjust="spacingAndGlyphs" textLength="6.3773" x="276.898" y="547.1443">1</text><polygon fill="#DDDDDD" points="256.9132,636.1643,256.9132,676.8548,592.1758,676.8548,592.1758,636.1643,256.9132,636.1643" style="stroke: #000000; stroke-width: 0.9110396570203644;"/><text fill="#000000" font-family="Helvetica Neue" font-size="12.7546" lengthAdjust="spacingAndGlyphs" textLength="168.5423" x="262.3794" y="652.8745">All types share a single table.</text><text fill="#000000" font-family="Helvetica Neue" font-size="12.7546" lengthAdjust="spacingAndGlyphs" textLength="324.3301" x="262.3794" y="668.6646">It's using STI. Plugins can add another implementations.</text></g></svg>