<?xml version="1.0" encoding="UTF-8" standalone="yes"?><svg xmlns="http://www.w3.org/2000/svg" xmlns:xlink="http://www.w3.org/1999/xlink" height="514pt" style="width:368px;height:514px;" version="1.1" viewBox="0 0 368 514" width="368pt"><defs><filter height="300%" id="f1" width="300%" x="-1" y="-1"><feGaussianBlur result="blurOut" stdDeviation="2.0"/><feColorMatrix in="blurOut" result="blurOut2" type="matrix" values="0 0 0 0 0 0 0 0 0 0 0 0 0 0 0 0 0 0 .4 0"/><feOffset dx="4.0" dy="4.0" in="blurOut2" result="blurOut3"/><feBlend in="SourceGraphic" in2="blurOut3" mode="normal"/></filter></defs><g><rect fill="#FEFECE" filter="url(#f1)" height="50.0122" style="stroke: #A80036; stroke-width: 1.5;" width="121" x="6" y="23"/><text fill="#000000" font-family="sans-serif" font-size="12" font-style="italic" lengthAdjust="spacingAndGlyphs" textLength="80" x="26.5" y="34.7481">«TakeSubnet»</text><text fill="#000000" font-family="sans-serif" font-size="12" lengthAdjust="spacingAndGlyphs" textLength="107" x="13" y="51.5922">ProvisioningSubnet</text><line style="stroke: #A80036; stroke-width: 1.5;" x1="7" x2="126" y1="57.0122" y2="57.0122"/><rect fill="#FEFECE" filter="url(#f1)" height="79.1522" style="stroke: #A80036; stroke-width: 1.5;" width="198" x="161" y="8.5"/><text fill="#000000" font-family="sans-serif" font-size="12" font-style="italic" lengthAdjust="spacingAndGlyphs" textLength="56" x="232" y="20.2481">«TakeOs»</text><text fill="#000000" font-family="sans-serif" font-size="12" lengthAdjust="spacingAndGlyphs" textLength="59" x="230.5" y="37.0922">SatelliteOs</text><line style="stroke: #A80036; stroke-width: 1.5;" x1="162" x2="358" y1="42.5122" y2="42.5122"/><text fill="#000000" font-family="sans-serif" font-size="10" lengthAdjust="spacingAndGlyphs" textLength="186" x="167" y="56.0422">description: OS for the Satellite machine</text><text fill="#000000" font-family="sans-serif" font-size="10" lengthAdjust="spacingAndGlyphs" textLength="59" x="167" y="68.4222">family: RHEL</text><text fill="#000000" font-family="sans-serif" font-size="10" lengthAdjust="spacingAndGlyphs" textLength="73" x="167" y="80.8022">version: '&gt;= 6.5'</text><rect fill="#FEFECE" filter="url(#f1)" height="103.9121" style="stroke: #A80036; stroke-width: 1.5;" width="211" x="58" y="148"/><text fill="#000000" font-family="sans-serif" font-size="12" font-style="italic" lengthAdjust="spacingAndGlyphs" textLength="66" x="130.5" y="159.7481">«TakeHost»</text><text fill="#000000" font-family="sans-serif" font-size="12" lengthAdjust="spacingAndGlyphs" textLength="91" x="118" y="176.5922">SatelliteMachine</text><line style="stroke: #A80036; stroke-width: 1.5;" x1="59" x2="268" y1="182.0122" y2="182.0122"/><text fill="#000000" font-family="sans-serif" font-size="10" lengthAdjust="spacingAndGlyphs" textLength="38" x="64" y="195.5422">count: 1</text><text fill="#000000" font-family="sans-serif" font-size="10" lengthAdjust="spacingAndGlyphs" textLength="67" x="64" y="207.9222">name: &lt;input&gt;</text><text fill="#000000" font-family="sans-serif" font-size="10" lengthAdjust="spacingAndGlyphs" textLength="199" x="64" y="220.3022">subnet: &lt;reference to ProvisioningSubnet&gt;</text><text fill="#000000" font-family="sans-serif" font-size="10" lengthAdjust="spacingAndGlyphs" textLength="138" x="64" y="232.6822">os: &lt;reference to SatelliteOs&gt;</text><text fill="#000000" font-family="sans-serif" font-size="10" lengthAdjust="spacingAndGlyphs" textLength="107" x="64" y="245.0622">activation_key: &lt;input&gt;</text><rect fill="#FEFECE" filter="url(#f1)" height="54.3922" style="stroke: #A80036; stroke-width: 1.5;" width="185" x="71" y="312"/><text fill="#000000" font-family="sans-serif" font-size="12" font-style="italic" lengthAdjust="spacingAndGlyphs" textLength="90" x="118.5" y="323.7481">«ProvisionHost»</text><text fill="#000000" font-family="sans-serif" font-size="12" lengthAdjust="spacingAndGlyphs" textLength="95" x="116" y="340.5922">ProvisionSatellite</text><line style="stroke: #A80036; stroke-width: 1.5;" x1="72" x2="255" y1="346.0122" y2="346.0122"/><text fill="#000000" font-family="sans-serif" font-size="10" lengthAdjust="spacingAndGlyphs" textLength="173" x="77" y="359.5422">host: &lt;reference to SatelliteMachine&gt;</text><rect fill="#FEFECE" filter="url(#f1)" height="79.1522" style="stroke: #A80036; stroke-width: 1.5;" width="185" x="71" y="426.5"/><text fill="#000000" font-family="sans-serif" font-size="12" font-style="italic" lengthAdjust="spacingAndGlyphs" textLength="111" x="108" y="438.2481">«RemoteExecution»</text><text fill="#000000" font-family="sans-serif" font-size="12" lengthAdjust="spacingAndGlyphs" textLength="76" x="125.5" y="455.0922">InstallSatellite</text><line style="stroke: #A80036; stroke-width: 1.5;" x1="72" x2="255" y1="460.5122" y2="460.5122"/><text fill="#000000" font-family="sans-serif" font-size="10" lengthAdjust="spacingAndGlyphs" textLength="173" x="77" y="474.0422">host: &lt;reference to SatelliteMachine&gt;</text><text fill="#000000" font-family="sans-serif" font-size="10" lengthAdjust="spacingAndGlyphs" textLength="139" x="77" y="486.4222">command: "katello-installer ..."</text><text fill="#000000" font-family="sans-serif" font-size="10" lengthAdjust="spacingAndGlyphs" textLength="123" x="77" y="498.8022">parameters: [password, ...]</text><path d="M82.0176,73.1 C94.1753,92.151 111.373,119.1 126.795,143.266 " fill="none" style="stroke: #808080; stroke-width: 1.0;"/><polygon fill="#808080" points="129.652,147.743,128.1813,138.0046,126.9618,143.5284,121.438,142.3089,129.652,147.743" style="stroke: #808080; stroke-width: 1.0;"/><path d="M234.768,87.539 C223.952,104.487 211.114,124.606 199.306,143.108 " fill="none" style="stroke: #808080; stroke-width: 1.0;"/><polygon fill="#808080" points="196.328,147.774,204.542,142.3399,199.0182,143.5594,197.7987,138.0356,196.328,147.774" style="stroke: #808080; stroke-width: 1.0;"/><path d="M163,252.154 C163,270.426 163,290.406 163,306.591 " fill="none" style="stroke: #808080; stroke-width: 1.0;"/><polygon fill="#808080" points="163,311.926,167,302.926,163,306.926,159,302.926,163,311.926" style="stroke: #808080; stroke-width: 1.0;"/><path d="M163,366.245 C163,382.234 163,402.835 163,421.1601 " fill="none" style="stroke: #808080; stroke-width: 1.0;"/><polygon fill="#808080" points="163,426.2627,167,417.2627,163,421.2627,159,417.2627,163,426.2627" style="stroke: #808080; stroke-width: 1.0;"/></g></svg>